<svg width="20" height="20" viewBox="0 0 20 20" fill="none" xmlns="http://www.w3.org/2000/svg">
<path d="M2.53571 0.158569C1.42152 0.573553 0.423928 1.63695 0.112991 2.75222C0.00934572 3.11533 -0.0165657 5.37181 0.00934572 10.2738C0.0482128 17.2507 0.0482128 17.2767 0.346194 17.8732C0.72191 18.6383 1.40856 19.3257 2.17295 19.7017L2.76891 20H10.0241H17.2793L17.8753 19.7017C18.6397 19.3257 19.3263 18.6383 19.702 17.8732L20 17.2767V10.0144V2.75222L19.702 2.15568C19.3263 1.39055 18.6397 0.703236 17.8753 0.327156C17.2793 0.0288868 17.2663 0.0288868 10.1537 0.00295067C4.31064 -0.0100174 2.93734 0.0159187 2.53571 0.158569ZM16.476 1.85741L16.9554 1.94819V2.99862C16.9554 4.59371 16.9295 4.61965 16.1262 4.54184C14.9084 4.41216 14.2865 4.99573 14.144 6.3963L14.0663 7.09659H15.2582H16.4501L16.4113 8.35451L16.3724 9.6254L15.2453 9.6643L14.1052 9.70321V13.9698V18.2493H12.3561H10.6071V13.9698V9.69024H9.89455H9.18199V8.39341V7.09659H9.88159H10.5682L10.7237 5.91648C11.0087 3.73781 11.9286 2.54473 13.7554 1.97412C14.3384 1.7796 15.6858 1.72773 16.476 1.85741Z" fill="black"/>
</svg>
