<svg width="20" height="20" viewBox="0 0 20 20" fill="none" xmlns="http://www.w3.org/2000/svg">
<path d="M1.09368 0.281326C-0.0156896 0.828201 -6.45657e-05 0.640701 -6.45657e-05 10.0001C-6.45657e-05 17.6407 0.0311854 18.4063 0.281185 18.9063C0.828059 20.0157 0.640559 20.0001 9.99992 20.0001C19.3593 20.0001 19.1718 20.0157 19.7187 18.9063C19.9687 18.4063 19.9999 17.6407 19.9999 10.0001C19.9999 0.640701 20.0155 0.828201 18.9062 0.281326C18.4062 0.0313263 17.6405 7.62939e-05 9.99992 7.62939e-05C2.35931 7.62939e-05 1.59368 0.0313263 1.09368 0.281326ZM5.21868 2.87507C5.9218 3.17195 6.24993 3.68757 6.24993 4.50007C6.24993 5.0782 6.15618 5.28132 5.71868 5.71882C5.26555 6.17195 5.07805 6.25007 4.45306 6.25007C2.62493 6.25007 2.04681 3.93757 3.64056 2.96882C4.23431 2.59382 4.53118 2.5782 5.21868 2.87507ZM14.9374 8.10945C15.703 8.46882 16.6093 9.48445 16.8437 10.2969C16.953 10.6563 17.0312 12.0938 17.0312 13.9688V17.0313H15.5468H14.0624L14.0468 14.4063C14.0468 11.3282 13.9218 10.8282 13.0937 10.4219C12.578 10.1719 12.4687 10.1719 11.9843 10.3751C11.6874 10.4844 11.3905 10.6876 11.3124 10.7969C11.2343 10.9219 11.1405 12.3438 11.0937 13.9844L11.0155 16.9532L9.49992 17.0001L7.96868 17.0469V12.5001V7.9532L9.49992 8.00007L11.0155 8.04695V8.53132V9.03132L11.4843 8.62507C12.4999 7.78132 13.7812 7.5782 14.9374 8.10945ZM5.93743 12.5001V17.0313H4.45306H2.96868V12.5001V7.96882H4.45306H5.93743V12.5001Z" fill="black"/>
</svg>
