<?xml version="1.0" standalone="no"?>
<!DOCTYPE svg PUBLIC "-//W3C//DTD SVG 20010904//EN"
 "http://www.w3.org/TR/2001/REC-SVG-20010904/DTD/svg10.dtd">
<svg version="1.0" xmlns="http://www.w3.org/2000/svg"
 width="1080.000000pt" height="2340.000000pt" viewBox="0 0 1080.000000 2340.000000"
 preserveAspectRatio="xMidYMid meet">

<g transform="translate(0.000000,2340.000000) scale(0.100000,-0.100000)"
fill="#000000" stroke="none">
<path d="M7890 21925 l0 -385 70 0 70 0 0 80 c0 73 2 82 28 110 l27 31 70
-111 70 -110 76 0 c42 0 78 2 81 5 3 3 -41 75 -99 160 l-104 155 96 109 c52
60 95 112 95 115 0 3 -38 6 -84 6 l-83 0 -79 -94 -79 -95 -6 177 c-4 97 -7
189 -8 205 -1 27 -2 27 -71 27 l-70 0 0 -385z"/>
<path d="M4877 22280 c-55 -44 -21 -130 52 -130 39 0 81 38 81 73 0 62 -82 97
-133 57z"/>
<path d="M1580 21910 l0 -360 53 -1 c28 0 63 -2 76 -5 l24 -4 -5 257 c-3 142
-4 254 -1 248 2 -5 43 -118 92 -250 l88 -240 55 -3 55 -3 93 256 c51 140 94
254 94 253 1 -2 -2 -115 -7 -252 -8 -207 -7 -250 4 -257 8 -5 43 -8 79 -7 l65
3 3 363 2 363 -101 -3 -102 -3 -90 -253 c-49 -139 -93 -249 -97 -245 -4 4 -33
82 -64 173 -32 91 -72 202 -88 248 l-30 82 -99 0 -99 0 0 -360z"/>
<path d="M6460 21910 l0 -360 53 0 c28 0 63 -3 76 -7 l24 -6 -7 251 c-4 139
-5 252 -3 252 2 0 44 -110 93 -245 l89 -245 55 0 55 0 92 253 92 252 -2 -255
-2 -255 73 -3 72 -4 0 366 0 366 -97 0 -98 0 -90 -254 c-49 -140 -92 -253 -95
-251 -4 2 -46 117 -95 254 l-89 251 -98 0 -98 0 0 -360z"/>
<path d="M2570 22058 c-45 -27 -60 -44 -88 -98 -33 -63 -34 -68 -30 -160 4
-104 17 -137 69 -189 47 -47 87 -64 166 -69 90 -6 151 10 199 52 41 35 40 49
-9 94 l-25 24 -21 -21 c-59 -59 -188 -45 -219 25 -25 54 -26 54 159 54 l171 0
-7 73 c-16 170 -91 246 -240 247 -62 0 -77 -4 -125 -32z m198 -113 c12 -14 22
-37 22 -51 0 -24 -1 -24 -95 -24 -90 0 -95 1 -95 21 0 12 16 37 35 56 32 32
40 35 73 30 22 -4 46 -17 60 -32z"/>
<path d="M3020 21815 l0 -275 70 0 70 0 0 193 0 194 26 24 c35 33 98 33 125 0
17 -21 19 -42 19 -218 l0 -194 73 3 72 3 6 200 c3 110 6 201 7 203 1 2 18 10
38 18 41 17 96 5 110 -24 5 -9 8 -102 9 -207 l0 -190 73 -3 72 -3 0 198 c0
109 -5 215 -11 236 -6 22 -26 55 -44 75 l-33 37 -85 0 c-80 0 -87 -2 -124 -32
l-40 -31 -31 30 c-50 51 -172 52 -230 3 l-30 -25 -6 30 c-5 30 -6 30 -71 30
l-65 0 0 -275z"/>
<path d="M4011 22064 c-86 -43 -131 -129 -131 -250 0 -172 95 -274 254 -274
86 0 137 21 187 77 49 55 64 102 63 203 0 96 -14 136 -65 195 -47 54 -99 75
-185 75 -56 0 -81 -5 -123 -26z m170 -100 c40 -20 59 -68 59 -149 0 -82 -19
-129 -60 -150 -70 -36 -133 4 -152 97 -30 145 52 254 153 202z"/>
<path d="M4480 21815 l0 -275 70 0 70 0 0 174 c0 96 3 182 6 191 10 25 58 45
109 45 l45 0 0 70 0 70 -43 0 c-41 0 -80 -18 -103 -49 -9 -11 -12 -8 -17 18
-6 31 -7 31 -72 31 l-65 0 0 -275z"/>
<path d="M4860 21820 l0 -270 70 0 70 0 0 270 0 270 -70 0 -70 0 0 -270z"/>
<path d="M5244 22071 c-93 -42 -150 -156 -142 -285 10 -157 107 -246 268 -246
84 0 137 19 183 65 l28 28 -33 36 c-18 20 -34 37 -34 39 -1 2 -18 -8 -38 -22
-88 -60 -199 -31 -221 57 l-7 27 172 0 173 0 -6 78 c-8 118 -47 183 -132 223
-53 25 -156 25 -211 0z m155 -106 c25 -12 51 -57 51 -86 0 -5 -45 -9 -100 -9
-110 0 -114 2 -80 58 31 50 78 64 129 37z"/>
<path d="M5765 22071 c-75 -34 -116 -107 -100 -180 9 -44 70 -94 140 -114 122
-36 150 -50 153 -79 9 -73 -144 -80 -171 -8 -11 29 -13 30 -79 30 -76 0 -78
-2 -49 -66 35 -77 109 -114 225 -114 131 0 216 63 216 159 0 89 -43 129 -181
166 -117 31 -144 60 -99 105 37 37 112 22 130 -26 9 -22 14 -24 80 -24 64 0
70 2 70 20 0 49 -50 108 -112 135 -53 21 -172 20 -223 -4z"/>
<path d="M7445 22071 c-42 -19 -105 -82 -105 -106 0 -7 -3 -20 -6 -29 -5 -14
5 -16 69 -16 71 0 75 1 81 25 5 18 17 28 46 36 36 11 44 10 68 -8 19 -14 28
-31 30 -55 l3 -34 -88 -10 c-155 -18 -217 -68 -218 -175 0 -43 5 -64 21 -85
39 -54 70 -68 147 -72 64 -3 76 -1 108 21 l37 25 11 -24 c10 -22 16 -24 82
-24 70 0 71 1 64 23 -4 12 -10 108 -14 212 -6 198 -13 226 -58 267 -55 50
-200 65 -278 29z m185 -328 c0 -27 -4 -53 -8 -59 -23 -34 -109 -46 -136 -18
-9 8 -16 28 -16 43 0 51 40 80 113 81 l47 0 0 -47z"/>
<path d="M8538 22065 c-87 -46 -129 -129 -129 -258 -1 -170 95 -266 266 -266
76 -1 153 27 189 67 18 20 18 22 -2 50 -39 54 -48 57 -81 29 -42 -35 -112 -44
-158 -20 -35 19 -77 78 -67 95 3 4 82 8 175 8 l170 0 -6 53 c-14 125 -30 171
-77 214 -62 58 -195 72 -280 28z m190 -120 c12 -14 22 -37 22 -51 0 -24 -1
-24 -95 -24 -90 0 -95 1 -95 21 0 12 16 37 35 56 32 32 40 35 73 30 22 -4 46
-17 60 -32z"/>
<path d="M8977 21983 c-9 -134 -9 -288 0 -375 l6 -68 68 0 69 0 0 174 c0 96 3
182 6 191 10 25 58 45 109 45 l45 0 0 70 0 70 -40 0 c-45 0 -94 -21 -108 -47
-8 -13 -11 -11 -17 15 -7 32 -7 32 -69 32 l-63 0 -6 -107z"/>
<path d="M4655 20803 c-65 -175 -126 -340 -136 -366 l-19 -48 82 3 81 3 25 73
24 73 131 -3 132 -3 25 -72 25 -73 77 0 c43 0 78 3 78 8 0 4 -60 167 -134 362
l-133 355 -70 3 -70 3 -118 -318z m192 -131 c-44 -2 -82 -1 -84 2 -5 4 63 219
75 241 3 5 24 -47 47 -115 l42 -125 -80 -3z"/>
<path d="M5430 20933 c-8 -3 -28 -15 -43 -26 l-28 -19 -6 21 c-5 19 -13 21
-69 21 l-64 0 0 -370 0 -370 70 0 70 0 0 121 0 121 36 -23 c47 -28 133 -31
186 -5 43 21 93 90 109 150 6 23 9 82 7 131 -4 107 -31 172 -91 219 -31 25
-48 31 -100 33 -34 1 -69 0 -77 -4z m87 -135 c61 -66 50 -252 -16 -288 -41
-22 -121 -1 -135 35 -3 9 -6 65 -6 125 0 105 1 109 26 129 37 29 104 28 131
-1z"/>
<path d="M5994 20926 c-18 -8 -35 -19 -38 -25 -11 -18 -26 -13 -26 9 0 18 -7
20 -70 20 l-70 0 0 -370 0 -370 75 0 75 0 0 120 0 119 37 -22 c45 -26 132 -29
178 -5 79 42 119 126 119 253 1 98 -12 150 -51 207 -46 68 -152 97 -229 64z
m95 -127 c12 -11 26 -32 32 -46 14 -37 11 -149 -5 -187 -27 -65 -98 -86 -150
-45 -26 20 -26 22 -26 144 0 117 1 125 22 139 33 23 99 21 127 -5z"/>
<path d="M1901 18395 c-225 -58 -385 -148 -546 -310 -80 -80 -173 -209 -213
-295 -46 -101 -52 -119 -79 -205 l-28 -90 -3 -7997 -2 -7996 30 -118 c54 -209
145 -369 295 -520 164 -165 359 -271 586 -318 66 -14 437 -16 3436 -16 3644 0
3403 -3 3573 51 90 30 242 109 320 168 89 67 215 200 274 289 62 94 119 224
154 349 l27 98 3 3929 2 3929 25 23 25 23 0 1201 0 1201 -25 25 -25 25 0 609
c0 589 1 609 19 615 17 5 20 20 26 128 4 67 6 335 4 596 l-4 474 -22 15 -23
14 0 1547 c0 1691 2 1628 -59 1810 -59 175 -152 322 -289 455 -152 148 -334
246 -549 296 -82 20 -139 20 -3461 19 l-3377 -1 -94 -23z m147 -961 c-4 -20
-34 -41 -44 -31 -8 8 24 47 38 47 5 0 8 -7 6 -16z m-344 -1060 c18 -18 22
-104 6 -135 -7 -12 -21 -19 -40 -19 -36 0 -50 23 -50 82 0 73 45 111 84 72z
m5106 -34 c56 -56 29 -189 -44 -213 -19 -6 -31 -6 -39 2 -8 8 -2 14 21 22 28
9 52 34 52 53 0 2 -15 2 -34 -1 -45 -7 -76 23 -76 74 0 70 74 109 120 63z
m190 0 c23 -23 26 -51 8 -80 -10 -15 -10 -22 0 -32 17 -17 15 -68 -5 -90 -20
-23 -80 -24 -105 -1 -22 20 -24 43 -3 43 8 0 15 -4 15 -10 0 -19 39 -31 61
-20 33 18 22 63 -18 75 -41 11 -42 20 -3 34 35 12 47 35 30 56 -17 21 -47 19
-67 -5 -22 -25 -33 -25 -33 -1 0 46 84 67 120 31z m144 4 c31 -31 12 -94 -29
-94 -13 0 -31 7 -39 16 -32 32 -10 94 34 94 10 0 26 -7 34 -16z m331 6 c3 -5
17 -10 31 -10 l24 0 0 -115 0 -116 -87 3 -88 3 -3 90 c-2 50 -1 99 2 110 8 30
106 59 121 35z m489 -3 c37 -27 43 -152 10 -204 -11 -18 -24 -23 -54 -23 -30
0 -43 5 -54 23 -34 53 -31 162 5 198 22 22 67 25 93 6z m289 -2 c1 -5 -18 -12
-43 -15 -39 -4 -45 -8 -48 -31 -3 -23 1 -26 27 -26 45 0 71 -28 71 -76 0 -52
-22 -77 -68 -77 -37 0 -72 23 -72 47 0 19 17 16 40 -7 24 -24 34 -25 54 -4 40
40 3 103 -49 84 -29 -11 -45 7 -39 43 14 83 9 78 69 75 31 -2 56 -7 58 -13z
m-495 -107 c-2 -76 -7 -113 -15 -115 -9 -3 -13 21 -15 89 l-3 93 -27 -2 c-18
-1 -28 3 -28 12 0 14 41 33 73 34 16 1 17 -9 15 -111z m640 0 c-2 -93 -6 -113
-18 -113 -12 0 -16 18 -18 93 -3 94 -3 94 -27 88 -13 -3 -26 -2 -30 3 -7 13
43 40 73 41 22 0 23 -1 20 -112z m-2254 82 c14 -5 26 -17 26 -26 0 -12 -5 -14
-17 -8 -10 4 -36 8 -58 8 -22 0 -48 -4 -57 -8 -13 -6 -18 -4 -18 6 0 31 74 47
124 28z m1086 2 c0 -13 -107 -177 -114 -174 -12 4 -8 14 44 98 46 74 70 101
70 76z m835 -52 c-5 -8 -11 -8 -17 -2 -6 6 -7 16 -3 22 5 8 11 8 17 2 6 -6 7
-16 3 -22z m625 8 c14 -16 20 -36 20 -70 0 -59 -24 -88 -74 -88 -32 0 -35 -3
-38 -32 -2 -21 -8 -33 -18 -33 -12 0 -16 20 -18 109 -1 61 -1 115 1 120 3 6
28 12 56 13 41 2 55 -2 71 -19z m265 12 c8 -6 22 -6 43 2 48 19 79 0 87 -54
10 -64 3 -113 -15 -113 -11 0 -16 17 -20 70 -4 61 -8 70 -26 73 -31 4 -43 -17
-46 -83 -2 -45 -7 -60 -18 -60 -11 0 -16 17 -20 70 -4 57 -8 70 -23 73 -34 7
-47 -17 -47 -84 0 -50 -3 -64 -15 -64 -12 0 -15 16 -15 83 0 46 2 86 4 88 10
9 99 9 111 -1z m-2817 -27 c2 -9 -10 -13 -42 -13 -43 0 -55 7 -39 24 12 11 76
2 81 -11z m-28 -43 c0 -5 -7 -10 -15 -10 -8 0 -15 5 -15 10 0 6 7 10 15 10 8
0 15 -4 15 -10z m1135 4 c9 -4 21 -18 26 -32 19 -49 -43 -96 -79 -60 -18 18
-15 75 6 87 20 12 25 13 47 5z m-827 -65 c-2 -37 -7 -45 -25 -47 -20 -3 -23 1
-23 34 0 39 27 81 42 66 5 -5 8 -29 6 -53z m-4875 19 c3 -10 9 -10 26 0 20 12
21 11 15 -12 -3 -13 0 -34 6 -46 16 -31 6 -35 -19 -8 l-22 23 -6 -23 c-10 -39
-23 -24 -23 28 0 46 12 67 23 38z m145 -25 c4 -41 20 -42 34 -2 6 16 12 28 15
25 10 -10 -21 -75 -36 -75 -9 0 -29 -3 -45 -7 -35 -8 -43 3 -38 56 4 39 6 41
36 38 27 -3 31 -7 34 -35z m4385 10 c6 -32 -11 -56 -32 -44 -9 6 -11 18 -6 40
8 38 31 41 38 4z m-4265 -35 c-2 -25 -8 -33 -23 -33 -15 0 -21 8 -23 33 -3 29
-1 32 23 32 24 0 26 -3 23 -32z m6262 6 c0 -8 -7 -14 -15 -14 -15 0 -21 21 -9
33 10 9 24 -2 24 -19z m1090 0 c0 -8 -7 -14 -15 -14 -15 0 -21 21 -9 33 10 9
24 -2 24 -19z m-2814 -13 c-8 -13 -36 -15 -36 -3 0 4 5 13 12 20 14 14 34 0
24 -17z m2442 17 c-3 -7 -11 -13 -18 -13 -7 0 -15 6 -17 13 -3 7 4 12 17 12
13 0 20 -5 18 -12z m509 -3823 c0 -2013 -1 -3675 -3 -3692 -6 -39 -19 -41 -65
-10 -29 19 -35 30 -37 66 -2 23 2 49 8 56 9 10 6 15 -12 21 -35 12 -87 5 -151
-18 -73 -26 -88 -48 -86 -122 2 -57 6 -65 27 -44 19 19 62 -6 62 -37 0 -16 15
-42 41 -70 31 -34 40 -50 36 -67 -11 -43 5 -53 59 -38 40 12 49 11 52 0 3 -7
20 -29 38 -47 33 -33 34 -35 34 -121 0 -48 -3 -97 -6 -110 -6 -22 -7 -22 -31
13 -13 19 -28 35 -33 35 -15 0 -12 -76 6 -155 37 -166 37 -165 5 -165 -27 0
-38 19 -45 80 -11 85 -28 143 -49 167 -11 12 -25 32 -31 44 -7 14 -32 29 -69
41 l-58 19 -49 -27 c-31 -17 -58 -25 -74 -22 -31 6 -34 -13 -11 -69 8 -19 15
-48 15 -64 0 -15 5 -31 10 -34 16 -10 11 -91 -7 -123 -16 -28 -18 -29 -40 -15
-21 14 -23 13 -28 -9 -2 -12 -9 -66 -14 -118 -5 -52 -21 -171 -35 -265 -15
-93 -31 -207 -38 -253 -12 -93 -35 -135 -61 -114 -8 7 -17 35 -19 63 -3 27
-11 56 -18 62 -13 13 -12 4 6 -115 6 -44 9 -48 34 -48 15 0 29 -3 33 -6 9 -9
-4 -34 -18 -34 -26 0 -33 -24 -15 -52 13 -21 19 -25 28 -16 7 7 12 20 12 30 0
10 9 27 19 37 12 12 15 21 9 23 -21 7 3 28 30 28 18 0 36 10 54 32 21 26 29
30 39 21 10 -10 4 -23 -29 -62 -41 -48 -54 -92 -32 -106 6 -3 10 -21 10 -39 0
-60 -48 -77 -67 -25 -11 27 -15 30 -28 19 -19 -16 -19 -56 0 -64 12 -4 14 -15
9 -46 -5 -33 -3 -41 12 -47 17 -7 18 -12 9 -41 -6 -18 -14 -29 -18 -26 -4 4
-7 0 -7 -9 0 -12 9 -17 30 -17 20 0 30 5 30 15 0 8 5 15 11 15 7 0 9 -12 5
-34 -5 -24 -2 -37 9 -46 8 -7 15 -27 15 -45 0 -23 6 -35 23 -42 56 -27 53 -32
64 120 6 78 10 143 8 145 -6 7 -34 -11 -29 -20 8 -12 -25 -48 -43 -48 -7 0
-17 8 -20 18 -4 9 -11 21 -17 25 -8 6 -8 10 1 13 6 3 21 14 34 25 26 22 31 23
47 7 23 -23 33 8 38 118 3 60 11 134 19 164 20 81 57 339 50 350 -4 6 -12 10
-18 9 -48 -6 -49 21 -2 56 19 15 37 36 41 47 5 16 8 18 15 7 15 -24 10 -7 -16
56 -29 72 -31 85 -7 85 10 0 23 5 29 11 6 6 21 9 34 7 22 -3 24 -7 22 -58 -2
-30 -8 -74 -14 -97 -8 -29 -8 -47 -1 -55 5 -7 13 -29 17 -48 12 -57 56 -182
80 -230 13 -25 28 -67 34 -93 18 -79 38 -117 60 -117 14 0 21 8 24 28 3 19 4
15 6 -15 1 -30 -4 -45 -16 -51 -15 -9 -15 -13 1 -53 10 -24 19 -67 22 -96 4
-51 3 -53 -22 -53 -22 0 -25 3 -21 22 4 12 4 32 1 45 -7 27 -58 47 -84 33 -32
-17 -65 -11 -100 18 -42 36 -33 52 28 52 l48 0 17 64 17 65 -29 78 c-15 43
-41 118 -57 167 -40 125 -55 125 -74 2 -5 -34 -16 -104 -25 -156 -9 -52 -17
-123 -17 -158 -1 -35 -5 -65 -10 -68 -12 -7 -10 -84 2 -84 17 0 11 -33 -10
-54 -15 -17 -20 -41 -25 -125 -3 -57 -8 -114 -11 -127 -5 -18 -2 -24 10 -24
20 0 20 -10 1 -37 -13 -19 -13 -26 -3 -43 11 -18 10 -23 -4 -34 -22 -16 -26
-116 -5 -116 7 0 18 -9 25 -20 13 -21 42 -28 42 -9 0 5 5 7 10 4 19 -12 10
-35 -12 -33 -13 1 -33 -2 -45 -6 -18 -6 -23 -4 -23 11 0 10 -7 29 -16 42 -13
18 -15 38 -11 92 4 43 2 67 -4 64 -5 -4 -9 -19 -9 -36 0 -46 -23 -34 -51 29
-61 131 -69 148 -82 165 -8 9 -18 17 -23 17 -15 0 -61 101 -74 163 -8 32 -19
66 -27 75 -11 14 -12 8 -6 -42 3 -33 12 -71 20 -85 17 -34 17 -52 -2 -44 -25
9 -102 -25 -108 -49 -4 -13 -11 -19 -21 -15 -8 3 -18 2 -21 -3 -4 -6 5 -14 19
-20 27 -10 34 -38 14 -58 -8 -8 -8 -15 2 -27 11 -13 11 -19 -3 -32 -13 -14
-21 -14 -42 -5 -14 6 -25 18 -25 26 0 21 -50 77 -62 70 -10 -6 -7 -61 7 -130
6 -28 4 -32 -22 -41 l-28 -10 5 -144 c5 -141 5 -144 28 -147 13 -2 29 1 36 7
10 8 16 5 24 -14 14 -31 2 -39 -44 -26 -19 5 -41 8 -47 5 -22 -8 -47 51 -47
108 0 29 -5 71 -12 93 -6 22 -12 49 -12 60 -1 12 -10 21 -26 25 -24 6 -24 7
16 30 41 24 42 24 37 75 -7 79 -7 98 1 127 8 26 7 26 -31 21 -35 -5 -40 -2
-51 21 -7 15 -12 33 -12 40 0 8 -9 16 -20 19 -11 3 -20 12 -20 21 0 12 -6 15
-24 10 -23 -5 -25 -3 -28 33 l-3 38 -16 -30 c-14 -26 -14 -34 -3 -60 16 -37
18 -65 4 -65 -6 0 -16 13 -23 28 -13 32 -88 132 -98 132 -18 0 -37 -42 -44
-94 -6 -55 -19 -65 -27 -21 -2 11 -10 21 -18 21 -8 1 -21 2 -28 3 -13 1 -92
80 -92 93 0 9 58 28 86 28 13 0 24 4 24 10 0 12 -67 55 -118 76 -59 23 -67 49
-46 158 15 78 23 97 59 140 l41 51 130 -3 129 -3 38 35 c24 23 37 44 37 60 0
51 31 16 34 -39 1 -24 35 -27 46 -5 5 8 13 58 20 110 10 82 15 98 38 120 56
53 126 133 107 122 -11 -6 -31 -21 -45 -34 -14 -13 -42 -34 -62 -49 -62 -42
-117 -98 -124 -125 -5 -20 -9 -22 -20 -13 -11 9 -23 6 -54 -16 -22 -15 -51
-39 -65 -53 -16 -16 -30 -22 -42 -17 -17 6 -17 7 2 20 108 75 120 90 106 129
-6 13 -8 40 -5 58 4 24 1 38 -10 47 -22 18 -20 29 7 52 l22 19 -26 23 c-15 12
-32 38 -38 58 -9 27 -20 38 -47 48 -51 19 -61 4 -33 -50 13 -24 24 -52 25 -61
1 -10 9 -29 18 -43 9 -14 16 -31 14 -38 -3 -20 12 -55 27 -61 18 -7 20 -47 3
-67 -17 -21 -146 -45 -160 -31 -7 7 -6 26 2 60 13 49 13 50 -25 117 -34 62
-37 72 -32 124 5 41 2 60 -9 72 -17 19 -19 72 -8 189 8 79 11 85 31 83 20 -2
21 0 12 30 -5 17 -9 37 -9 44 0 14 111 73 175 93 22 7 82 30 134 52 101 42
352 128 377 128 13 0 56 36 146 122 23 21 28 35 28 72 0 49 16 67 73 80 17 4
35 19 45 38 9 17 27 43 39 58 30 37 15 55 -62 76 -84 23 -240 53 -305 60 -52
5 -60 9 -136 79 -102 93 -160 125 -228 125 -35 0 -59 7 -76 20 -33 25 -39 25
-50 -5 -12 -33 -66 -61 -86 -44 -27 22 -10 149 23 167 15 9 14 12 -4 38 -31
45 -43 91 -43 169 0 87 -9 98 -101 120 -72 17 -456 85 -483 85 -9 0 -14 -5
-11 -10 10 -16 -5 -50 -21 -50 -16 0 -17 -5 -5 -28 11 -20 -4 -443 -18 -511
-9 -46 -34 -74 -61 -69 -11 3 -14 14 -11 48 1 25 7 50 11 55 12 15 22 163 24
352 1 136 -1 164 -14 169 -32 13 -154 22 -178 13 -18 -7 -31 -5 -49 6 -14 9
-32 14 -40 11 -9 -4 -21 -2 -27 3 -16 12 -108 36 -196 51 -41 6 -109 18 -150
25 -41 8 -136 23 -210 34 -859 128 -935 138 -955 121 -12 -10 -16 -9 -21 4 -3
9 -13 16 -21 16 -8 0 -11 -4 -8 -10 4 -6 -8 -10 -29 -10 -20 0 -36 5 -36 10 0
6 12 8 28 5 19 -5 23 -4 12 3 -23 15 -158 35 -185 28 -13 -3 -29 -14 -34 -24
-5 -10 -17 -115 -26 -233 -25 -347 -26 -359 -35 -364 -5 -3 -16 2 -25 12 -15
14 -16 31 -10 132 15 262 34 449 49 486 9 20 16 39 16 40 0 5 -90 23 -145 30
-463 58 -524 62 -578 41 -51 -19 -67 -46 -67 -115 0 -26 -4 -72 -9 -102 -6
-30 -15 -88 -21 -129 -7 -41 -15 -82 -18 -90 -6 -18 -7 -20 -22 -85 -6 -27
-18 -90 -25 -140 -17 -107 -27 -119 -100 -112 -103 10 -117 29 -95 125 6 23
13 59 16 80 3 20 21 129 40 242 37 216 42 333 13 351 -22 14 -95 10 -108 -5
-9 -10 -28 -13 -74 -9 -74 6 -87 15 -58 40 30 25 106 46 173 47 70 1 81 10 34
30 -20 8 -36 20 -36 25 0 14 37 36 85 51 51 16 67 29 60 48 -3 8 2 23 11 33 9
10 14 27 11 39 -3 11 0 20 5 20 7 0 9 18 5 49 -3 26 -2 52 4 58 6 6 4 16 -4
27 -11 15 -20 16 -62 8 -30 -5 -49 -13 -48 -20 2 -7 0 -12 -5 -12 -4 0 -20
-11 -36 -25 -16 -14 -42 -25 -57 -25 -36 0 -79 20 -79 36 0 21 -66 81 -103 93
-29 10 -43 25 -74 79 -22 37 -42 74 -45 82 -5 13 -16 15 -64 8 -135 -17 -152
-22 -174 -50 -12 -16 -27 -28 -35 -28 -19 0 -75 -124 -96 -216 -13 -53 -64
-107 -96 -101 -13 2 -28 -2 -34 -9 -6 -8 -17 -14 -24 -14 -19 0 -64 -57 -70
-88 -11 -54 -29 -102 -39 -111 -6 -5 -25 -7 -42 -4 -23 4 -35 13 -47 39 -9 19
-21 34 -26 34 -6 0 -13 15 -17 34 -8 48 -30 52 -80 16 -23 -16 -49 -30 -58
-30 -9 0 -27 -22 -41 -50 -31 -61 -47 -69 -90 -45 -33 17 -34 17 -56 -4 -13
-11 -28 -21 -35 -21 -18 0 -34 -76 -23 -113 12 -43 11 -81 -3 -112 -13 -29
-21 -31 -42 -9 -14 13 -15 35 -11 140 4 99 2 134 -11 174 -13 40 -14 56 -5 76
6 14 11 41 11 61 0 22 11 54 30 85 17 26 30 57 30 67 0 10 6 24 14 31 8 6 12
18 9 26 -9 24 18 97 44 119 34 29 21 50 -38 63 -66 16 -86 15 -96 -2 -9 -17
-77 -67 -121 -90 -18 -9 -57 -16 -94 -17 -35 0 -85 -4 -111 -8 -39 -7 -52 -5
-65 8 -10 9 -30 23 -47 31 -34 16 -74 58 -75 78 0 7 8 16 17 19 10 4 26 17 36
30 10 13 27 23 37 23 26 0 55 47 40 65 -20 24 -97 65 -123 65 -16 0 -34 12
-51 35 -34 44 -57 45 -133 5 -32 -17 -87 -37 -123 -44 -36 -8 -80 -19 -97 -25
-26 -7 -33 -7 -33 3 0 8 -7 19 -15 26 -16 13 -21 80 -6 80 5 0 12 16 15 35 9
49 58 83 136 96 56 9 66 8 117 -16 63 -28 105 -32 123 -10 9 11 34 14 98 14
48 0 128 1 177 4 61 2 96 -1 110 -9 11 -7 45 -17 75 -23 30 -6 72 -15 94 -20
34 -8 41 -7 62 14 13 14 24 36 24 51 0 40 52 79 74 57 4 -4 15 -8 23 -8 20 0
51 -51 52 -85 1 -14 5 -31 10 -39 5 -7 5 -29 0 -50 -9 -41 7 -101 28 -101 8 0
16 -7 19 -15 9 -22 34 0 29 25 -2 10 3 24 11 30 7 7 12 16 9 20 -3 5 -1 11 5
15 5 3 10 17 10 31 0 13 5 23 12 21 19 -4 28 64 12 95 -8 15 -14 31 -14 35 0
23 -15 51 -41 75 -24 23 -28 32 -22 60 7 39 31 75 55 83 10 4 34 22 55 41 65
59 74 65 81 60 4 -2 24 4 46 15 37 18 38 18 43 -1 6 -22 42 -27 74 -9 15 7 24
7 34 -1 15 -12 68 -3 59 11 -3 5 4 18 15 30 16 17 26 20 48 14 15 -5 30 -8 33
-8 3 1 21 4 40 7 19 3 54 0 77 -6 37 -9 47 -7 76 11 19 12 44 21 55 21 11 0
50 16 87 35 36 20 87 38 113 42 26 3 58 11 72 18 14 7 40 15 57 18 41 7 55 16
46 30 -11 17 -13 38 -3 32 4 -3 10 5 13 17 4 12 9 19 13 15 7 -7 39 50 36 64
-1 4 8 15 18 24 11 10 20 26 20 35 0 10 7 20 15 24 8 3 15 2 15 -3 0 -5 9 -11
20 -14 24 -6 26 -29 5 -47 -14 -11 -13 -14 2 -25 15 -11 14 -14 -10 -29 -14
-10 -23 -24 -21 -31 3 -8 -5 -19 -20 -27 -14 -7 -25 -17 -25 -23 0 -5 -10 -13
-23 -17 -22 -6 -21 -6 5 -7 15 -1 27 -5 27 -10 0 -12 79 -53 90 -46 4 3 10 -2
14 -10 3 -8 13 -15 22 -15 9 0 22 -7 29 -16 10 -14 17 -15 51 -4 40 13 113 45
82 36 -14 -4 -16 1 -11 29 6 37 12 35 -81 35 -38 0 -52 4 -63 20 -8 11 -21 20
-29 20 -17 0 -19 31 -2 48 7 7 8 12 2 12 -19 0 -10 41 11 46 12 3 28 22 38 46
17 38 17 41 0 53 -9 7 -23 11 -30 8 -7 -3 -13 0 -13 7 0 6 -5 8 -11 5 -6 -4
-13 2 -16 13 -3 15 -29 29 -91 52 -132 48 -145 53 -177 76 -25 18 -51 22 -165
28 -187 9 -251 22 -318 63 -45 27 -64 33 -89 28 -18 -3 -50 -1 -70 4 -21 6
-54 13 -73 16 -47 7 -97 49 -81 69 14 17 5 43 -19 51 -27 9 -76 56 -93 90 -9
17 -18 51 -22 75 -4 25 -10 49 -15 54 -5 5 -5 17 1 28 15 28 3 65 -22 71 -18
5 -19 9 -9 27 9 17 8 26 -5 46 -8 13 -20 24 -26 24 -6 0 -6 6 0 18 23 44 -68
83 -169 71 -63 -7 -81 -3 -74 15 3 7 -2 33 -11 57 -10 24 -18 56 -20 71 -2 16
-16 38 -32 52 -23 19 -30 34 -30 60 0 19 4 33 8 31 4 -3 15 -2 25 2 16 6 16 7
-2 20 -21 15 -38 17 -29 3 3 -5 1 -10 -4 -10 -10 0 -16 22 -12 43 1 5 -6 7
-16 5 -11 -2 -17 -11 -15 -23 2 -12 0 -16 -5 -9 -7 10 -52 13 -60 4 -5 -4 -16
-6 -91 -14 -39 -4 -74 -12 -77 -16 -7 -11 -135 -3 -190 11 -30 8 -49 22 -73
55 -29 40 -33 52 -35 117 -2 70 -3 72 -27 72 -18 0 -25 5 -24 18 1 10 -6 17
-17 18 -10 1 -22 2 -26 4 -67 18 -66 17 -47 28 11 6 30 12 44 13 14 2 26 8 28
14 2 5 10 10 18 10 19 0 18 19 -2 27 -10 4 -12 8 -5 13 8 4 9 14 2 31 -5 13
-10 19 -10 13 -1 -7 -8 -15 -17 -18 -13 -5 -14 1 -8 40 6 43 5 45 -25 57 -19
7 -31 18 -31 29 0 10 -2 18 -4 18 -2 0 -28 5 -57 10 -66 13 -130 21 -181 23
l-38 1 2 185 c3 154 5 185 18 187 8 1 29 7 45 13 203 72 301 90 380 69 22 -6
78 -12 125 -13 47 -1 85 -3 85 -4 0 -2 9 -4 19 -6 21 -4 46 7 68 29 8 7 23 16
35 20 18 6 21 4 16 -15 -5 -18 -3 -21 11 -16 10 4 15 3 11 -3 -3 -6 -1 -10 5
-10 6 0 9 -4 6 -9 -4 -5 2 -8 11 -6 10 2 27 4 38 5 19 1 18 2 -2 10 -28 11
-30 36 -5 44 11 4 25 18 32 31 14 26 30 33 30 14 0 -5 5 -7 10 -4 6 3 10 -5
10 -18 0 -17 -7 -26 -21 -30 -12 -3 -19 -10 -16 -15 3 -4 8 -21 11 -37 3 -16
11 -32 18 -37 9 -7 4 -8 -14 -5 -29 4 -39 -9 -14 -19 23 -9 7 -40 -29 -57 -26
-12 -32 -21 -28 -36 3 -13 1 -21 -6 -21 -7 0 -9 6 -6 13 4 6 0 4 -8 -5 -8 -10
-20 -18 -28 -18 -24 -1 -49 -26 -49 -51 0 -15 -19 -41 -53 -75 -52 -49 -64
-55 -144 -66 -7 -1 -13 -5 -13 -10 0 -5 -4 -7 -8 -4 -14 8 -27 -7 -44 -51 -12
-33 -13 -40 -2 -36 9 3 12 -2 9 -18 -3 -12 0 -28 6 -36 13 -15 49 -18 49 -3 0
19 37 10 62 -15 16 -16 32 -23 42 -19 20 8 21 -4 1 -27 -10 -10 -14 -26 -10
-42 6 -22 10 -24 53 -20 26 3 60 9 75 13 15 5 25 5 22 1 -5 -9 66 -43 95 -46
9 -1 25 -7 37 -13 19 -10 20 -16 12 -53 -6 -24 -7 -56 -3 -73 5 -17 7 -35 5
-40 -1 -5 5 -3 14 4 20 17 27 8 30 -37 3 -53 3 -53 20 -47 8 4 15 2 15 -2 0
-5 19 -8 42 -7 65 4 68 5 69 22 0 9 3 11 5 6 4 -10 44 -8 179 10 49 6 140 46
160 70 6 6 33 23 60 36 53 27 67 57 46 98 -10 17 -121 81 -142 81 -13 0 -98
64 -98 74 -1 6 -11 20 -23 33 -29 31 -31 132 -3 163 10 11 22 17 26 14 8 -5
13 8 11 31 -1 6 16 23 38 39 38 28 116 105 95 93 -7 -3 -9 9 -7 34 4 43 -11
71 -36 67 -9 -2 -21 6 -27 18 -5 11 -18 20 -28 18 -9 -1 -17 1 -17 5 0 5 -12
6 -26 3 -20 -4 -26 0 -31 17 -3 13 -11 20 -19 17 -9 -3 -14 2 -15 12 0 14 -2
14 -9 -3 -5 -11 -9 -14 -9 -7 -1 7 -12 11 -29 10 -32 -2 -52 8 -52 27 0 15
-27 28 -41 20 -5 -4 -6 1 -3 10 4 9 15 15 28 13 18 -3 21 1 18 32 -2 19 -8 40
-13 46 -13 16 -58 23 -62 11 -2 -6 -36 -11 -76 -12 -55 -1 -77 -6 -85 -18 -9
-11 -16 -13 -27 -6 -11 8 -11 12 -1 16 21 8 13 42 -15 60 -34 22 -44 34 -38
50 2 7 -3 33 -11 58 -12 33 -22 47 -40 51 -13 3 -24 12 -24 20 0 18 -10 17
-34 -1 -21 -16 -72 -20 -79 -7 -13 20 -16 86 -6 98 9 11 8 19 -5 32 -20 23
-20 27 0 46 14 15 12 16 -28 12 -26 -2 -55 3 -73 12 -36 19 -45 21 -66 11 -10
-5 -29 0 -49 13 -27 16 -38 18 -52 9 -10 -6 -30 -8 -45 -5 -20 5 -24 4 -18 -6
6 -10 4 -11 -6 -4 -19 11 -60 5 -80 -12 -8 -8 -21 -14 -27 -14 -7 0 -12 -4
-12 -9 0 -4 -11 -6 -24 -4 -16 3 -31 -2 -45 -16 -12 -12 -25 -21 -29 -21 -4 0
-15 -13 -25 -29 -15 -26 -73 -71 -91 -71 -3 0 -6 124 -6 275 l0 275 44 43 c24
24 51 58 60 75 9 17 30 44 47 60 16 15 31 37 33 48 1 11 22 30 48 44 58 32 79
50 72 61 -3 5 2 6 11 3 9 -4 29 2 45 15 16 11 33 21 38 21 5 0 21 10 36 23 28
24 118 61 145 59 43 -3 58 7 56 38 -4 72 -4 71 -32 68 -28 -3 -40 19 -19 34
17 11 -42 28 -100 28 -39 0 -56 -4 -60 -15 -4 -10 -11 -12 -23 -5 -31 16 -121
19 -149 5 -109 -55 -142 -66 -195 -68 l-57 -2 0 147 0 147 1237 1 c680 0 1239
2 1241 5 3 3 1209 3 2681 2 l2676 -3 2 -3659z m-7170 2209 c-3 -3 -12 -4 -19
-1 -8 3 -5 6 6 6 11 1 17 -2 13 -5z m433 -230 c0 -8 -5 -12 -10 -9 -6 4 -8 11
-5 16 9 14 15 11 15 -7z m-59 -28 c27 -12 17 -31 -18 -33 -18 -2 -33 2 -33 8
0 5 -5 7 -11 4 -6 -4 -6 1 2 12 12 19 30 22 60 9z m99 -15 c0 -6 -4 -13 -10
-16 -5 -3 -10 -1 -10 5 0 6 -4 9 -9 5 -5 -3 -12 -1 -16 5 -4 6 5 10 19 10 14
0 26 -4 26 -9z m-163 -1093 c-3 -8 -6 -5 -6 6 -1 11 2 17 5 13 3 -3 4 -12 1
-19z m-340 -1095 c7 -9 12 -22 10 -28 -2 -5 2 -16 10 -23 11 -11 19 -10 47 7
35 22 114 29 132 12 5 -6 25 -12 44 -14 20 -2 40 -6 45 -9 34 -20 199 -25 221
-7 11 9 18 8 32 -5 32 -31 97 -78 120 -87 14 -6 22 -17 22 -33 0 -17 7 -26 25
-30 14 -4 25 -13 25 -22 0 -8 6 -25 14 -37 24 -39 27 -108 6 -147 -11 -19 -19
-30 -20 -25 0 7 -3 7 -8 0 -10 -14 -68 -45 -93 -50 -12 -2 -55 -7 -97 -10 -54
-3 -84 -11 -106 -26 -30 -20 -31 -24 -31 -90 1 -37 4 -71 8 -75 12 -12 8 -34
-7 -34 -8 0 -16 -7 -20 -15 -3 -8 -12 -15 -21 -15 -8 0 -24 -6 -35 -12 -16
-10 -24 -10 -38 0 -9 6 -26 16 -37 21 -12 5 -30 26 -40 47 -28 53 -63 84 -95
84 -15 0 -30 6 -33 13 -2 7 -36 18 -74 24 -57 10 -77 10 -117 -2 -27 -8 -54
-19 -60 -24 -11 -9 -49 -14 -102 -12 -24 1 -46 15 -90 58 -33 32 -65 58 -73
59 -8 2 -18 10 -23 18 -5 8 -16 23 -25 32 -10 9 -23 28 -30 41 -10 20 -10 25
3 30 8 3 21 21 29 39 11 26 20 34 40 34 36 0 144 54 213 107 24 18 52 33 62
33 25 0 50 10 50 21 0 4 -17 11 -37 15 -21 4 -46 11 -57 16 -15 8 -11 13 33
33 51 24 62 43 41 75 -6 9 -5 19 3 28 16 20 117 9 134 -15z m1963 -123 c0 -10
-5 -22 -10 -25 -13 -8 -24 20 -16 41 8 20 26 9 26 -16z m195 -290 c-3 -5 -10
-10 -16 -10 -5 0 -9 5 -9 10 0 6 7 10 16 10 8 0 12 -4 9 -10z m-2606 -932
c116 -21 150 -56 202 -209 29 -84 30 -91 15 -114 -28 -43 -46 -109 -46 -175 0
-61 -2 -66 -40 -105 -30 -31 -42 -53 -49 -92 -6 -28 -19 -68 -30 -88 -11 -21
-18 -42 -15 -49 10 -26 123 -116 146 -116 15 0 47 -24 93 -71 75 -76 114 -99
169 -99 19 0 37 -4 40 -9 12 -19 86 -50 137 -56 85 -10 165 14 211 65 l37 40
20 -26 c12 -15 21 -41 21 -58 1 -30 19 -66 35 -66 18 0 85 -63 85 -80 0 -61
-50 -98 -106 -80 -30 10 -39 9 -72 -11 -30 -18 -54 -23 -125 -24 -49 -1 -92
-6 -97 -11 -5 -5 -10 -22 -12 -38 -4 -39 -29 -54 -62 -38 -30 13 -36 60 -11
85 16 16 10 27 -15 27 -24 0 -215 75 -282 110 -65 34 -84 37 -110 14 -14 -13
-21 -14 -32 -5 -7 6 -42 18 -77 25 -35 8 -72 17 -81 21 -13 5 -18 2 -18 -8 0
-8 -17 -29 -37 -45 -29 -22 -43 -28 -60 -21 -18 7 -22 18 -27 91 -3 46 -5 330
-4 631 l3 549 28 24 c32 27 66 30 166 12z m506 -238 c25 -17 57 -47 72 -68 39
-52 41 -54 106 -95 31 -20 57 -44 57 -52 0 -25 -28 -72 -51 -89 -19 -13 -21
-21 -15 -59 5 -34 3 -48 -9 -61 -9 -9 -19 -16 -22 -16 -8 0 -103 103 -103 112
0 4 -26 8 -58 8 -97 0 -119 30 -86 117 16 40 16 45 0 61 -22 26 -20 78 6 121
37 61 43 62 103 21z m689 -316 c17 -7 20 -34 10 -105 -5 -35 -12 -47 -31 -56
-38 -18 -46 -7 -39 53 5 41 32 114 43 114 1 0 8 -3 17 -6z m1196 -175 c0 -11
-27 -12 -34 0 -3 4 -3 11 0 14 8 8 34 -3 34 -14z m-216 -88 c-5 -68 -9 -81
-23 -79 -13 3 -15 15 -13 66 3 75 18 120 33 105 7 -7 8 -39 3 -92z m-1611 24
c20 -19 42 -35 50 -35 36 0 24 -71 -15 -91 -13 -7 -26 -16 -29 -22 -13 -19
-29 5 -35 53 -4 29 -14 56 -25 66 -28 25 -24 64 6 64 7 0 28 -16 48 -35z m980
-59 c23 -17 22 -28 -8 -83 -28 -54 -23 -74 11 -42 16 15 35 22 59 21 49 -2
124 -38 134 -65 5 -13 16 -29 24 -35 17 -15 32 -81 28 -129 -3 -34 1 -36 76
-48 65 -10 79 -2 87 52 11 82 84 148 100 91 3 -13 -1 -61 -9 -108 -33 -198
-37 -226 -37 -252 1 -18 -5 -29 -17 -33 -11 -3 -23 -23 -31 -50 -12 -44 -30
-52 -30 -14 0 24 -44 43 -83 35 -25 -5 -30 -2 -43 29 -19 46 -54 47 -95 3 -32
-36 -37 -59 -14 -78 21 -18 19 -60 -5 -85 -18 -19 -26 -20 -82 -13 -125 16
-169 25 -180 36 -23 23 -57 14 -73 -20 -8 -18 -44 -80 -80 -138 -35 -58 -65
-111 -65 -119 0 -8 -24 -44 -54 -80 -59 -74 -76 -120 -51 -141 8 -7 15 -19 15
-26 0 -8 10 -14 24 -14 15 0 36 -14 56 -37 30 -34 32 -40 25 -87 -3 -27 -9
-54 -12 -59 -3 -5 -27 -6 -53 -3 -39 5 -52 3 -74 -15 -23 -18 -30 -19 -36 -8
-10 16 -24 128 -22 179 3 82 2 93 -9 106 -6 8 -20 14 -30 14 -11 0 -19 7 -19
15 0 9 9 15 21 15 18 0 20 4 15 26 -6 24 -5 25 22 19 24 -5 30 -2 41 22 7 15
36 63 66 108 54 81 90 154 77 156 -4 1 -17 0 -30 -1 -17 -1 -26 6 -35 29 -14
39 -26 39 -62 1 -17 -17 -39 -30 -53 -30 -23 0 -24 1 -10 18 9 9 23 33 32 53
21 45 100 140 131 156 24 13 65 75 65 99 0 8 -7 17 -15 20 -10 4 -12 10 -6 18
5 6 11 29 13 51 3 37 1 41 -40 63 -40 22 -43 27 -40 61 3 34 5 36 41 39 32 3
38 0 47 -23 5 -14 17 -28 25 -32 24 -9 83 27 112 69 30 44 47 49 41 13 -8 -42
11 -40 53 5 57 61 54 105 -8 114 -48 7 -8 147 41 146 6 0 19 -7 29 -14z m2282
4 c3 -5 -1 -10 -9 -10 -8 0 -18 5 -21 10 -3 6 1 10 9 10 8 0 18 -4 21 -10z
m-1520 -136 c0 -10 -8 -20 -17 -22 -18 -3 -26 27 -11 42 12 11 28 0 28 -20z
m-80 -47 c1 -18 4 -42 9 -54 8 -24 -7 -31 -32 -15 -17 11 -18 77 -2 97 17 20
25 11 25 -28z m2132 -29 c-3 -7 -5 -2 -5 12 0 14 2 19 5 13 2 -7 2 -19 0 -25z
m-3258 -99 c39 -14 39 -30 2 -71 l-30 -33 -20 22 c-23 25 -26 45 -11 74 12 22
16 23 59 8z m3542 -16 c16 -15 46 -46 65 -69 46 -57 37 -80 -49 -128 -115 -65
-133 -39 -24 34 71 48 80 65 46 96 -27 25 -82 94 -75 94 4 0 20 -12 37 -27z
m871 -101 c-7 -59 -12 -165 -12 -235 l0 -127 -27 -6 c-21 -6 -30 -2 -41 14 -8
12 -20 22 -26 22 -7 0 -18 6 -25 13 -6 6 -26 12 -44 12 l-32 0 1 152 c1 200
19 243 89 211 22 -10 28 -10 35 2 14 26 44 57 60 62 30 11 34 -10 22 -120z
m-609 -6 c30 -48 34 -83 14 -124 -12 -23 -15 -58 -8 -94 0 -5 15 -8 32 -8 20
0 29 -4 26 -12 -2 -7 -16 -12 -31 -10 -14 2 -35 -3 -46 -11 -25 -18 -107 1
-122 27 -7 12 -6 50 1 113 15 125 34 163 80 163 20 -1 33 -11 54 -44z m-586
-128 c-2 -13 -4 -5 -4 17 -1 22 1 32 4 23 2 -10 2 -28 0 -40z m366 -128 c36
-11 68 -24 71 -28 3 -5 -16 -14 -42 -21 -175 -47 -211 -62 -252 -101 -23 -22
-48 -40 -56 -40 -18 0 -18 -5 1 -33 13 -20 13 -25 -1 -45 -8 -12 -26 -22 -39
-22 -16 0 -30 -10 -42 -30 -20 -35 -30 -36 -73 -12 l-32 17 -54 -59 c-30 -33
-68 -85 -85 -115 -44 -82 -88 -212 -95 -285 -7 -64 -6 -65 16 -59 17 4 21 2
18 -8 -3 -8 -9 -14 -14 -14 -25 -1 -34 -20 -34 -75 0 -37 5 -60 13 -64 9 -3 8
-8 -4 -18 -9 -7 -19 -22 -21 -33 -8 -34 -28 54 -28 121 0 242 127 509 328 689
56 51 61 62 18 46 -17 -7 -26 -7 -26 0 0 29 -182 -120 -195 -160 -3 -10 -17
-24 -31 -31 -26 -14 -58 -74 -51 -94 3 -6 -2 -22 -9 -36 -23 -43 -62 -172 -79
-260 -21 -109 -25 -121 -34 -115 -12 7 -30 -70 -35 -149 -4 -73 -13 -90 -39
-80 -19 7 -23 34 -5 34 6 0 3 9 -7 20 -14 16 -15 23 -6 34 7 9 9 21 5 28 -11
17 -11 268 0 268 4 0 5 11 2 25 -5 18 -2 27 9 31 10 4 13 13 9 26 -3 10 0 25
6 33 6 8 9 19 5 25 -4 6 4 19 17 30 l23 19 -22 1 c-12 0 -25 5 -28 10 -9 15
61 137 110 190 22 25 63 72 90 105 l50 59 -46 -31 c-84 -58 -197 -200 -243
-306 -57 -130 -106 -325 -106 -422 0 -59 -16 -66 -24 -10 -8 50 -15 55 -34 25
-7 -11 -19 -20 -26 -20 -8 0 -18 -10 -22 -22 l-8 -23 -7 25 c-32 110 24 366
109 499 63 99 118 174 165 226 36 39 48 47 58 38 9 -9 9 -17 -5 -37 -18 -28
-21 -56 -6 -56 19 0 130 154 153 213 8 20 65 57 90 57 9 0 17 -7 17 -15 0 -19
21 -19 68 1 59 25 123 45 172 54 76 14 269 3 343 -20z m347 10 c0 -5 -7 -10
-15 -10 -8 0 -15 5 -15 10 0 6 7 10 15 10 8 0 15 -4 15 -10z m-4340 -9 c0 -12
-20 -25 -27 -18 -7 7 6 27 18 27 5 0 9 -4 9 -9z m-370 -75 c0 -8 -4 -17 -9
-21 -12 -7 -24 12 -16 25 9 15 25 12 25 -4z m290 -3 c0 -10 -5 -25 -10 -33
-14 -22 -30 0 -19 28 10 26 29 29 29 5z m-450 -12 c0 -6 -35 -33 -77 -62 -82
-55 -172 -89 -235 -89 -33 0 -38 3 -38 24 0 22 3 23 50 18 53 -5 100 15 100
43 0 8 2 15 4 15 31 0 114 25 133 40 27 21 63 27 63 11z m380 -95 c0 -8 -8
-24 -19 -37 -14 -18 -16 -27 -8 -40 15 -24 -8 -51 -38 -43 -22 5 -55 -17 -55
-37 0 -5 -9 -9 -20 -9 -17 0 -20 7 -20 40 0 34 -4 42 -25 50 -14 5 -25 12 -25
16 0 18 37 31 74 27 32 -4 48 1 76 20 40 29 60 33 60 13z m144 -51 c-9 -29
-17 -142 -11 -158 11 -28 61 -7 88 36 14 23 39 48 55 56 16 8 43 21 60 29 38
18 64 10 65 -20 4 -114 6 -145 13 -160 5 -10 4 -18 -1 -18 -6 0 -15 11 -21 25
-18 38 -50 33 -58 -9 -5 -31 -10 -35 -46 -41 -32 -6 -39 -10 -35 -26 4 -15 -2
-20 -32 -25 -20 -3 -40 -7 -45 -8 -5 -1 -15 -18 -21 -37 -11 -31 -15 -34 -48
-31 -19 1 -38 -2 -42 -8 -3 -6 -11 -7 -17 -4 -6 4 -38 7 -71 8 -56 1 -64 -1
-96 -31 -24 -22 -39 -29 -47 -22 -7 6 -21 6 -39 -1 -15 -6 -36 -8 -47 -4 -11
3 -51 7 -90 7 -56 2 -72 6 -84 21 -19 27 -18 60 4 84 25 29 228 95 326 107 15
2 33 8 39 14 6 6 32 11 57 11 60 0 77 15 83 70 6 61 27 171 34 183 10 17 34
-26 27 -48z m4341 21 c20 -14 62 -30 93 -36 76 -15 86 -22 90 -55 l4 -28 -50
7 c-28 3 -76 16 -109 27 -82 28 -160 27 -267 -5 -107 -31 -191 -83 -273 -169
-81 -84 -108 -129 -143 -232 -25 -73 -31 -110 -37 -221 -3 -74 -9 -134 -13
-134 -4 0 -23 16 -43 35 -34 34 -37 34 -84 26 -26 -5 -50 -7 -53 -5 -13 14
-11 195 4 256 63 268 289 498 538 547 23 5 102 9 175 10 124 1 134 0 168 -23z
m-4897 -79 c-11 -37 -30 -45 -36 -14 -3 15 35 63 44 55 2 -2 -2 -21 -8 -41z
m1633 -8 c10 -19 6 -26 -24 -57 -32 -32 -39 -34 -68 -26 -17 5 -37 17 -43 27
-9 15 -6 22 19 42 26 21 43 27 92 34 7 0 17 -9 24 -20z m175 10 c13 -22 4
-121 -16 -162 -10 -23 -20 -40 -20 -37 -1 3 -3 15 -6 27 -2 12 -15 33 -29 47
-28 28 -34 82 -13 116 14 22 72 28 84 9z m3345 -52 c14 -13 38 -41 52 -62 27
-40 99 -95 124 -95 7 0 13 -11 13 -25 0 -46 -35 -28 -115 60 -43 47 -83 85
-90 85 -18 0 -48 37 -40 49 10 17 27 13 56 -12z m-1904 -189 c-4 -95 -10 -280
-14 -411 -4 -151 -10 -233 -15 -223 -11 20 -6 776 5 794 5 6 13 12 19 12 8 0
9 -50 5 -172z m-1932 106 c27 -18 23 -44 -6 -44 -19 0 -41 37 -32 53 6 10 11
9 38 -9z m-215 -59 c-28 -30 -40 -32 -40 -7 0 25 9 32 38 32 l25 0 -23 -25z
m448 0 c15 -32 15 -62 2 -70 -5 -3 -23 1 -39 10 -17 8 -50 15 -75 15 -35 0
-48 5 -56 20 -15 28 10 36 58 22 32 -10 39 -9 57 8 26 27 39 25 53 -5z m136 0
c15 -8 41 -15 57 -15 21 0 29 -5 29 -17 0 -10 7 -27 15 -37 8 -11 15 -30 15
-42 0 -33 -28 -106 -51 -130 -23 -25 -32 -78 -49 -292 -13 -151 -27 -233 -29
-158 -1 22 4 90 9 150 20 224 27 311 23 322 -11 31 -116 40 -150 12 -7 -5 -22
-8 -35 -7 -32 5 -43 -4 -85 -69 -44 -69 -54 -56 -18 23 14 32 25 65 25 75 0
10 16 32 35 49 36 31 68 40 80 21 9 -15 31 -12 50 6 12 12 14 27 9 59 -10 67
10 81 70 50z m-851 -107 c8 -12 -1 -32 -36 -86 -46 -68 -69 -88 -88 -76 -31
19 -58 144 -36 163 8 6 29 8 48 5 19 -3 45 -1 59 5 30 12 40 10 53 -11z m-793
-116 c0 -14 -24 -32 -42 -32 -16 0 -17 3 -8 20 10 19 50 29 50 12z m820 -34
c0 -39 -10 -78 -19 -78 -17 0 -29 52 -19 81 14 40 38 38 38 -3z m500 -32 c0
-3 -4 -8 -10 -11 -5 -3 -10 -1 -10 4 0 6 5 11 10 11 6 0 10 -2 10 -4z m4040
-41 c7 -8 17 -54 22 -101 12 -98 -6 -214 -47 -316 -27 -66 -125 -199 -187
-253 -69 -60 -209 -119 -208 -87 0 4 39 32 86 62 135 86 220 201 258 346 19
75 38 232 37 307 -2 60 12 74 39 42z m-4014 -61 c-4 -14 -11 -22 -16 -19 -9 5
-8 13 6 53 9 25 17 -3 10 -34z m-316 -4 c0 -5 -7 -10 -15 -10 -8 0 -15 5 -15
10 0 6 7 10 15 10 8 0 15 -4 15 -10z m2848 -62 c-3 -24 -24 -31 -46 -15 -9 8
-8 13 5 23 28 21 45 17 41 -8z m895 -60 c0 -24 -6 -56 -13 -73 l-14 -30 -4 40
c-5 59 7 130 20 117 6 -6 11 -30 11 -54z m-3315 18 c3 -20 0 -27 -10 -24 -7 3
-14 17 -16 32 -3 20 0 27 10 24 7 -3 14 -17 16 -32z m-1720 -40 c28 -10 59
-13 93 -9 38 4 53 2 60 -8 13 -21 11 -27 -13 -35 -21 -6 -21 -7 -3 -20 10 -8
17 -15 14 -17 -6 -5 -220 19 -240 27 -11 5 -15 22 -16 59 -1 68 4 74 36 43 14
-14 45 -32 69 -40z m1400 37 c-2 -10 -10 -18 -18 -18 -8 0 -16 8 -18 18 -2 12
3 17 18 17 15 0 20 -5 18 -17z m167 -5 c-29 -104 -59 -190 -63 -180 -2 7 1 25
6 40 6 15 16 57 23 95 8 44 17 67 27 67 9 0 11 -7 7 -22z m-603 -14 c4 -3 0
-20 -7 -37 -7 -18 -16 -56 -20 -84 -4 -29 -11 -55 -16 -59 -12 -7 -11 7 6 101
8 44 14 81 15 83 0 4 17 2 22 -4z m770 -84 c2 -25 -1 -46 -7 -48 -6 -1 -11 23
-13 55 -4 69 15 62 20 -7z m2358 50 c0 -5 -4 -10 -10 -10 -5 0 -10 5 -10 10 0
6 5 10 10 10 6 0 10 -4 10 -10z m-3622 -57 c-4 -34 -28 -43 -28 -10 0 25 7 37
22 37 5 0 8 -12 6 -27z m-133 -43 c3 -5 18 -10 32 -10 21 0 24 -2 13 -15 -7
-8 -19 -15 -28 -15 -14 0 -41 27 -42 43 0 10 18 9 25 -3z m7078 -31 c-8 -8
-17 -7 -34 2 l-24 13 25 6 c29 8 49 -5 33 -21z m-7160 -1 c20 -7 37 -16 37
-20 0 -12 -104 -25 -118 -15 -8 7 -19 4 -32 -8 -19 -17 -21 -17 -40 0 -29 27
-25 35 19 35 27 0 41 5 45 16 7 17 20 16 89 -8z m1562 -57 c3 -5 1 -12 -4 -15
-12 -8 -41 3 -41 15 0 12 37 12 45 0z m-905 -35 c0 -12 -4 -26 -8 -31 -4 -6
-16 -35 -26 -65 -11 -30 -23 -59 -27 -64 -12 -14 -11 -53 1 -61 6 -4 -6 -18
-25 -31 -20 -13 -40 -22 -45 -19 -5 3 -27 1 -49 -6 -29 -8 -38 -16 -33 -27 4
-13 -3 -14 -49 -9 -30 4 -64 7 -76 7 -14 0 -28 10 -37 28 l-14 28 67 0 c37 1
98 7 134 14 90 17 95 24 152 213 16 56 35 68 35 23z m-175 -86 c3 -5 1 -10 -4
-10 -6 0 -11 5 -11 10 0 6 2 10 4 10 3 0 8 -4 11 -10z m710 -32 c-4 -18 -12
-87 -19 -152 -8 -86 -15 -121 -25 -124 -11 -4 -13 5 -7 45 3 28 2 63 -5 81 -9
25 -8 36 5 54 9 12 16 39 16 59 0 48 8 69 27 69 12 0 14 -7 8 -32z m-1165 -63
c10 -30 17 -55 15 -55 -6 0 -41 82 -48 115 -11 44 9 8 33 -60z m-320 13 c0
-11 -32 -10 -49 1 -7 5 -11 13 -7 19 7 11 56 -7 56 -20z m1050 -8 c0 -15 7
-20 25 -20 14 0 28 7 31 15 8 20 46 19 92 -2 l37 -17 -55 -6 c-61 -6 -59 -10
20 -35 171 -54 197 -70 149 -96 -26 -13 -88 -3 -95 16 -4 10 -24 13 -72 12
-69 -2 -72 0 -61 42 2 7 -2 16 -9 18 -7 3 -11 1 -10 -4 2 -4 -3 -23 -11 -40
-15 -36 -38 -43 -48 -15 -4 9 -11 20 -16 23 -15 10 2 29 26 30 37 2 -32 16
-85 18 -40 1 -48 4 -48 20 0 27 20 38 34 18 11 -14 14 -13 35 3 13 9 21 22 17
29 -5 7 2 11 18 11 19 0 26 -5 26 -20z m620 10 c12 -9 9 -15 -20 -40 -56 -48
-83 -32 -39 24 22 28 35 32 59 16z m5770 -20 c0 -21 -35 -80 -47 -80 -18 0
-16 41 3 68 15 22 44 30 44 12z m-7005 -15 l30 -13 -30 0 c-43 1 -66 8 -60 19
8 12 24 11 60 -6z m905 -15 c0 -5 -5 -10 -11 -10 -5 0 -7 5 -4 10 3 6 8 10 11
10 2 0 4 -4 4 -10z m-1255 -10 c3 -5 -1 -10 -9 -10 -9 0 -16 5 -16 10 0 6 4
10 9 10 6 0 13 -4 16 -10z m1876 -44 c-8 -10 -5 -16 15 -24 14 -7 33 -12 44
-12 50 0 20 -42 -33 -45 -50 -4 -84 -21 -91 -47 -5 -15 -9 -18 -13 -10 -6 15
27 82 39 82 5 0 8 18 8 39 0 30 4 40 18 43 21 5 28 -8 13 -26z m-1766 -5 c-2
-15 -13 -44 -24 -62 -27 -44 -27 -75 0 -82 19 -5 38 0 94 24 26 12 138 5 142
-8 4 -12 -67 -43 -107 -48 -13 -1 -31 -13 -40 -25 -42 -60 -72 -89 -87 -83
-12 5 -14 1 -9 -15 10 -31 -12 -37 -40 -11 -16 15 -24 33 -24 55 0 30 -3 34
-37 39 -21 4 -44 8 -50 10 -19 6 -16 25 5 31 75 23 128 79 136 142 3 26 26 59
43 62 1 0 0 -13 -2 -29z m195 -7 c0 -16 -10 -28 -30 -39 -29 -15 -30 -15 -30
7 0 49 10 65 36 60 17 -3 24 -11 24 -28z m1313 -33 c3 -14 0 -32 -6 -39 -9
-11 -16 -7 -39 19 -30 34 -35 55 -15 62 22 7 55 -15 60 -42z m125 -22 c-2 -6
-8 -10 -13 -10 -5 0 -11 4 -13 10 -2 6 4 11 13 11 9 0 15 -5 13 -11z m-619
-15 c-11 -14 -9 -20 19 -45 17 -15 34 -40 37 -54 3 -14 7 -36 10 -50 8 -37
-12 -31 -58 17 -34 36 -41 39 -49 24 -13 -23 -25 -12 -26 24 0 20 6 35 19 43
10 6 19 19 19 28 0 20 9 29 28 29 12 0 12 -3 1 -16z m161 -4 c0 -5 -2 -10 -4
-10 -3 0 -8 5 -11 10 -3 6 -1 10 4 10 6 0 11 -4 11 -10z m496 -1 c7 -11 -32
-57 -41 -48 -6 7 17 59 27 59 4 0 10 -5 14 -11z m5764 -19 c0 -5 -4 -10 -10
-10 -5 0 -10 5 -10 10 0 6 5 10 10 10 6 0 10 -4 10 -10z m-6230 -10 c0 -5 -2
-10 -4 -10 -3 0 -8 5 -11 10 -3 6 -1 10 4 10 6 0 11 -4 11 -10z m416 -55 c10
-8 29 -15 40 -15 12 0 27 -6 33 -14 6 -7 31 -19 56 -26 24 -7 47 -20 50 -29 3
-9 35 -41 72 -71 37 -30 92 -79 123 -107 53 -51 54 -53 28 -53 -35 0 -36 -17
-1 -33 21 -9 27 -9 31 1 7 23 33 12 85 -37 29 -27 68 -58 87 -70 41 -25 140
-113 295 -266 62 -60 117 -114 123 -120 24 -21 112 -123 112 -130 0 -4 11 -20
25 -37 14 -16 25 -38 25 -49 0 -11 24 -44 53 -74 105 -110 112 -122 111 -187
-1 -32 -4 -61 -7 -65 -4 -3 -22 11 -40 31 -28 30 -41 37 -73 37 -42 1 -99 22
-111 42 -5 7 -20 23 -35 36 -22 19 -30 21 -41 12 -11 -9 -17 -8 -27 4 -7 8 -9
16 -4 17 5 1 -29 5 -76 9 -183 16 -204 20 -232 47 -29 27 -34 26 -52 -10 -6
-12 -24 -25 -41 -30 -53 -15 -158 -16 -187 -2 -32 17 -68 60 -68 84 0 10 -16
30 -35 44 l-34 26 -3 98 -3 97 -21 -65 c-15 -50 -26 -68 -47 -78 -23 -11 -27
-20 -27 -52 0 -32 -5 -43 -27 -57 -15 -10 -40 -31 -54 -48 -30 -33 -35 -32
-43 5 -2 14 -12 42 -21 63 -21 51 -13 79 22 71 25 -7 25 -5 18 22 -5 16 -9 52
-10 80 -2 60 -32 128 -76 170 l-31 29 7 -30 c4 -16 11 -43 16 -58 8 -28 -3
-67 -19 -67 -29 1 -34 27 -32 155 1 72 -11 151 -25 161 -12 9 -13 17 -6 36 12
33 -3 48 -49 48 -51 0 -67 28 -41 76 33 62 4 191 -50 218 -15 7 -29 28 -38 54
-12 39 -11 45 4 62 10 11 29 20 42 20 13 0 34 5 46 12 21 12 84 24 138 27 14
0 34 -6 45 -14z m5502 -7 c1 -8 -8 -34 -22 -57 l-24 -43 -7 32 c-5 22 -2 36 9
49 9 10 16 23 16 30 0 17 24 8 28 -11z m-5865 -9 c-1 -8 -6 -30 -12 -49 -9
-34 -9 -34 -10 18 -1 39 2 52 12 49 6 -2 11 -10 10 -18z m-1125 -36 c-2 -15 3
-17 29 -15 27 3 35 -1 45 -22 12 -27 23 -33 33 -16 11 17 43 -8 47 -36 2 -15
10 -30 18 -34 8 -4 28 -14 44 -21 16 -8 37 -26 45 -41 9 -16 23 -28 31 -28 8
0 30 -9 48 -20 18 -11 39 -20 47 -20 14 0 14 -4 0 -30 -13 -25 -13 -30 -1 -30
16 0 66 -62 66 -82 0 -7 -4 -19 -9 -27 -8 -12 -15 -9 -41 13 -22 18 -44 27
-69 27 -20 1 -63 2 -96 3 -63 1 -75 -5 -75 -41 0 -13 -4 -23 -10 -23 -5 0 -10
-4 -10 -10 0 -17 16 -11 44 15 23 21 37 25 89 25 38 0 71 -6 83 -14 11 -8 31
-16 44 -18 19 -2 26 -11 33 -41 10 -42 -3 -67 -34 -67 -12 0 -21 10 -25 28
-12 56 -8 54 -102 47 -108 -9 -127 -16 -146 -54 -22 -41 -54 -61 -97 -61 -20
0 -53 -7 -72 -15 -20 -8 -48 -15 -63 -15 -23 0 -26 -3 -22 -25 7 -36 -11 -47
-56 -33 -24 8 -43 22 -52 40 -17 34 -27 35 -46 6 -14 -21 -17 -21 -49 -8 -19
8 -39 14 -45 12 -11 -2 -28 134 -18 150 9 14 34 9 41 -8 10 -26 58 -71 84 -79
13 -4 38 -15 54 -24 17 -10 43 -21 59 -25 24 -6 29 -3 38 22 12 32 88 81 88
56 0 -14 21 -19 33 -8 3 4 -5 21 -19 39 -14 19 -22 39 -18 49 4 10 -4 30 -20
50 -14 19 -26 44 -26 56 0 39 -28 80 -56 80 -13 0 -27 -7 -30 -15 -8 -21 -34
-19 -34 3 0 26 21 50 51 57 22 5 33 -1 67 -37 23 -24 42 -49 42 -56 0 -7 9
-20 21 -30 11 -9 32 -38 45 -64 26 -51 61 -79 69 -56 3 8 7 29 10 48 12 101
43 194 66 202 9 3 9 10 -1 27 l-12 24 -21 -34 -22 -33 -15 37 c-8 20 -21 37
-27 37 -15 0 -17 26 -3 35 6 3 10 11 10 17 0 15 -73 -1 -83 -19 -6 -9 -17 -13
-32 -9 -27 7 -54 -19 -38 -35 7 -7 25 -6 57 2 26 6 50 8 54 4 4 -3 9 -49 10
-101 4 -84 2 -93 -12 -88 -9 4 -23 19 -32 35 -8 16 -18 29 -22 29 -5 0 -18 18
-30 39 -12 21 -29 41 -37 45 -8 3 -15 13 -15 22 0 9 -7 22 -16 29 -15 10 -15
16 -3 49 11 31 17 36 36 31 20 -5 21 -2 16 30 -8 49 1 65 37 65 24 0 30 -4 28
-17z m898 -72 c13 -29 24 -57 24 -61 0 -5 -16 -18 -35 -30 -20 -12 -35 -30
-35 -40 0 -21 -36 -50 -61 -50 -28 0 -42 -25 -29 -51 10 -17 9 -24 -3 -36 -13
-14 -17 -13 -33 6 -10 11 -21 21 -25 21 -3 0 -14 -19 -24 -42 -10 -24 -34 -58
-53 -76 -24 -23 -32 -38 -27 -50 28 -65 7 -87 -50 -53 -20 12 -44 21 -55 21
-20 0 -32 22 -24 45 4 8 7 15 8 15 0 0 17 -4 36 -10 51 -15 73 -4 67 30 -3 15
-1 32 5 38 9 9 7 17 -6 31 -27 29 -14 53 26 49 27 -2 35 2 46 25 13 26 12 31
-8 52 -12 13 -34 25 -49 27 l-26 4 28 14 c30 15 60 5 104 -33 27 -24 67 -19
71 8 1 11 -9 32 -23 48 l-26 27 40 0 40 0 -1 48 c-1 30 5 57 16 74 15 24 20
26 38 15 11 -7 31 -36 44 -66z m-1154 14 c-2 -11 -12 -29 -23 -41 -10 -11 -19
-28 -19 -37 0 -9 -4 -19 -10 -22 -5 -3 -10 -17 -10 -29 0 -13 -9 -34 -19 -47
-18 -21 -21 -22 -35 -9 -21 21 -33 162 -14 177 18 16 78 32 108 30 19 -2 24
-7 22 -22z m7204 -67 c-10 -49 -26 -59 -26 -17 0 36 6 49 23 49 5 0 7 -14 3
-32z m-7136 -23 c0 -27 -12 -45 -31 -45 -15 0 -19 7 -19 33 0 19 3 37 6 40 10
10 44 -12 44 -28z m1274 -25 c5 -5 8 -36 7 -69 0 -33 3 -62 8 -65 13 -8 23 42
16 76 -10 44 15 67 66 61 24 -4 45 -1 54 7 12 10 16 9 21 -3 3 -9 14 -19 25
-22 16 -5 18 -14 14 -73 -3 -37 -9 -68 -15 -70 -5 -2 -10 -17 -10 -32 0 -16
-4 -32 -10 -35 -12 -7 -14 5 -18 113 -1 28 -6 41 -13 36 -6 -3 -9 -14 -6 -23
2 -9 -2 -53 -9 -97 -7 -43 -13 -85 -13 -92 -1 -7 -12 -17 -25 -22 -13 -5 -27
-18 -31 -30 -6 -20 -7 -21 -20 -3 -10 13 -17 15 -25 7 -9 -9 -18 -5 -36 13
-39 39 -29 67 16 43 23 -12 37 4 42 50 2 29 0 35 -17 37 -87 8 -121 15 -137
30 -20 18 -23 44 -8 59 7 7 2 15 -15 24 -33 17 -34 61 -2 84 17 12 35 15 77
10 30 -3 59 -10 64 -14z m-1223 -176 c28 -14 30 -19 25 -49 -4 -19 -2 -36 4
-40 18 -11 11 -26 -12 -23 -14 2 -24 12 -28 28 -5 21 -19 32 -68 57 -2 1 1 11
8 22 13 25 31 26 71 5z m4159 6 c0 -5 -4 -10 -10 -10 -5 0 -10 5 -10 10 0 6 5
10 10 10 6 0 10 -4 10 -10z m-3503 -36 c29 -32 25 -74 -8 -74 -26 0 -52 56
-38 82 13 24 17 23 46 -8z m294 -16 c21 -26 26 -97 8 -115 -9 -9 -9 -23 -1
-54 13 -53 8 -66 -36 -85 -19 -8 -42 -23 -49 -34 -23 -33 -55 -24 -97 25 -21
25 -36 52 -33 59 3 7 28 16 55 20 53 7 78 26 68 52 -4 11 -2 15 8 11 8 -3 20
1 26 9 17 19 -4 44 -36 44 l-24 0 20 39 c17 35 31 45 63 50 5 0 17 -9 28 -21z
m459 -74 c0 -16 -16 -19 -25 -4 -8 13 4 32 16 25 5 -4 9 -13 9 -21z m80 -78
c0 -34 4 -75 9 -92 12 -44 2 -127 -15 -120 -7 3 -16 1 -19 -4 -11 -17 -24 -11
-31 15 -5 20 -9 23 -24 15 -28 -15 -32 1 -25 88 10 120 14 135 36 129 12 -3
19 0 19 10 0 8 5 24 11 35 11 21 12 21 25 3 8 -11 14 -44 14 -79z m5850 50 c0
-2 -14 -19 -31 -37 -30 -32 -31 -32 -24 -9 10 33 24 50 41 50 8 0 14 -2 14 -4z
m-1386 -22 c9 -3 16 -10 16 -15 0 -14 -24 -11 -46 6 -16 12 -17 14 -2 15 9 0
23 -3 32 -6z m-4844 -70 c0 -17 -6 -50 -14 -72 -8 -22 -12 -43 -9 -46 4 -3 1
-23 -5 -43 -6 -21 -13 -60 -16 -88 -5 -43 -4 -48 8 -32 7 9 22 17 33 17 16 0
19 -5 15 -31 -5 -36 -16 -42 -57 -31 -34 10 -47 44 -49 128 -1 45 -5 54 -33
78 -34 28 -43 61 -20 69 6 2 22 -4 34 -15 23 -22 45 -16 42 10 -2 10 1 28 5
41 6 19 4 28 -10 38 -20 15 -20 15 21 29 37 13 55 -4 55 -52z m4034 -34 c19
-7 19 -9 3 -15 -31 -13 -62 3 -86 45 -32 57 -16 70 27 20 19 -23 45 -45 56
-50z m2034 75 c2 -2 -1 -17 -5 -35 -11 -43 -50 -60 -58 -27 -4 13 -1 35 4 51
9 22 15 26 34 20 12 -3 23 -8 25 -9z m-1128 -37 c33 -23 50 -48 32 -48 -14 0
-75 44 -80 58 -6 18 11 15 48 -10z m-5594 -32 c7 -29 -11 -89 -32 -106 -11
-10 -17 -10 -30 1 -12 10 -14 23 -9 58 4 25 12 52 17 59 18 21 47 14 54 -12z
m4374 -15 c-61 -20 -74 -18 -44 4 10 8 37 14 59 14 l40 -1 -55 -17z m2561 -34
c-8 -8 -11 -4 -11 14 0 33 14 47 18 19 2 -12 -1 -27 -7 -33z m80 36 c45 -57
42 -73 -15 -87 -26 -6 -28 -5 -22 16 3 13 6 38 6 56 0 36 10 41 31 15z m-1687
-15 c-1 -10 -2 -22 -3 -28 0 -5 -10 -10 -21 -10 -11 0 -20 -6 -21 -12 0 -7 -4
-3 -10 10 -9 24 -29 22 -29 -4 0 -8 -9 -14 -19 -14 -11 0 -23 -5 -26 -10 -9
-15 -26 -1 -23 18 2 12 -4 17 -22 16 -25 -1 -43 13 -34 28 3 4 35 8 72 8 37 0
74 5 82 10 23 15 55 8 54 -12z m-244 2 c0 -5 -4 -10 -9 -10 -6 0 -13 5 -16 10
-3 6 1 10 9 10 9 0 16 -4 16 -10z m-4342 -48 c7 -23 -27 -23 -48 -2 -18 18
-20 24 -9 31 15 9 50 -9 57 -29z m4737 3 c33 -32 31 -45 -6 -45 -27 0 -118 18
-127 26 -2 1 5 11 15 22 27 30 87 29 118 -3z m124 -30 c37 -37 42 -45 27 -51
-9 -4 -28 -2 -42 4 -26 12 -66 70 -58 84 10 16 30 7 73 -37z m-6239 16 c0 -6
-5 -13 -10 -16 -15 -9 -43 3 -35 15 8 13 45 13 45 1z m4063 -8 c-7 -2 -19 -2
-25 0 -7 3 -2 5 12 5 14 0 19 -2 13 -5z m-3133 -33 c0 -26 -34 -60 -61 -60
-15 0 -19 4 -15 16 3 9 6 24 6 34 0 17 14 24 58 29 6 0 12 -8 12 -19z m4743
-14 c15 -19 27 -38 27 -42 0 -5 12 -25 26 -46 15 -21 24 -42 20 -46 -4 -4 -12
1 -17 11 -6 10 -22 17 -39 17 -20 0 -30 5 -30 15 0 9 -11 20 -25 25 -26 10
-33 34 -15 45 8 5 7 11 0 20 -13 16 -5 35 13 35 7 0 24 -16 40 -34z m-2089
-41 c-29 -22 -42 -17 -15 6 13 11 26 17 29 14 3 -3 -3 -12 -14 -20z m4025 -50
c-6 -39 -13 -72 -16 -75 -6 -6 5 105 14 133 11 39 12 8 2 -58z m-129 30 c-7
-8 -19 -15 -28 -15 -12 0 -10 6 9 26 24 26 41 16 19 -11z m268 6 c3 -8 -1 -12
-9 -9 -7 2 -15 10 -17 17 -3 8 1 12 9 9 7 -2 15 -10 17 -17z m-2623 -30 c27
-40 35 -90 22 -129 -11 -28 16 -41 41 -19 24 22 269 17 326 -7 21 -9 51 -16
67 -16 17 0 42 -12 63 -31 20 -17 40 -28 46 -24 6 3 8 11 5 16 -4 5 -2 9 4 9
22 0 15 -37 -11 -62 -15 -14 -28 -34 -28 -45 0 -10 -14 -27 -31 -37 -21 -13
-28 -23 -24 -34 4 -10 14 -38 22 -64 9 -27 22 -48 30 -48 7 0 13 -4 13 -10 0
-15 -9 -12 -37 10 -25 19 -27 20 -56 3 -16 -10 -42 -40 -56 -68 -33 -63 -42
-70 -63 -45 -9 11 -20 20 -25 20 -4 0 -13 10 -18 21 -12 26 -30 26 -30 2 0
-22 -28 -29 -43 -11 -6 7 -12 29 -14 48 -3 30 -7 35 -31 38 -19 2 -41 -6 -65
-24 -20 -15 -38 -28 -40 -30 -2 -1 8 -14 22 -29 15 -16 26 -31 26 -35 0 -11
75 -40 106 -40 33 0 163 -63 182 -87 20 -27 15 -62 -10 -72 -41 -17 -76 -60
-118 -145 -48 -96 -94 -133 -155 -123 -24 4 -35 1 -39 -10 -11 -28 -6 -169 15
-383 11 -118 21 -258 22 -310 2 -87 0 -99 -26 -145 -48 -87 -144 -134 -247
-122 -90 11 -155 59 -201 149 -25 49 -19 85 16 94 38 9 52 0 80 -56 32 -64 73
-90 140 -90 63 0 111 28 131 76 12 29 14 58 8 143 -4 58 -10 114 -13 124 -7
18 -9 17 -37 -6 -50 -42 -90 -57 -152 -57 -49 0 -67 6 -116 35 -66 39 -72 41
-79 21 -9 -24 -95 -56 -169 -63 -77 -7 -92 -18 -60 -44 28 -22 28 -33 1 -26
-12 3 -32 2 -45 -3 -19 -8 -39 -1 -101 31 -59 31 -94 42 -143 46 -85 7 -100
21 -100 92 0 57 -8 101 -34 201 -8 30 -22 133 -32 228 -16 165 -16 173 1 192
10 11 26 20 37 20 26 0 58 -36 58 -64 0 -38 14 -38 56 -2 77 65 156 91 214 70
82 -29 124 -8 135 70 4 25 13 51 21 57 8 6 14 22 14 34 0 27 14 40 55 49 82
20 88 18 145 -25 31 -24 69 -44 89 -46 44 -6 83 -31 79 -51 -2 -9 -19 -20 -38
-24 -19 -5 -46 -21 -60 -36 -37 -41 -101 -88 -134 -99 -41 -13 -108 -145 -114
-223 -6 -96 13 -279 31 -298 21 -20 37 -7 42 34 28 243 79 379 176 469 46 43
51 45 106 45 32 -1 76 -7 98 -15 28 -10 43 -11 52 -3 24 19 14 49 -32 96 -25
25 -45 54 -45 65 0 11 -18 36 -40 57 -39 37 -49 55 -31 62 5 2 12 27 16 57 6
45 5 53 -7 48 -8 -3 -21 -1 -29 3 -9 6 -20 3 -31 -7 -20 -17 -24 -43 -8 -43
18 0 11 -19 -11 -31 -20 -10 -21 -9 -16 10 7 27 -7 35 -24 14 -12 -14 -12 -16
1 -9 8 4 6 0 -4 -8 -27 -22 -41 -20 -66 7 -17 17 -20 30 -16 57 3 19 6 47 6
63 0 36 32 67 71 67 17 0 43 8 57 19 15 10 41 22 57 28 17 5 36 22 43 37 13
25 15 26 31 12 21 -19 91 -22 91 -3 0 18 -50 66 -90 85 -29 14 -35 23 -37 52
-1 24 -10 42 -28 57 -31 27 -25 43 17 43 17 0 48 5 69 12 33 9 39 15 39 39 0
16 -9 50 -19 78 -19 46 -19 61 1 61 4 0 19 -18 33 -39z m-3475 9 c0 -11 -7
-20 -15 -20 -15 0 -21 21 -8 33 12 13 23 7 23 -13z m-260 -14 c0 -26 -26 -38
-49 -24 -28 17 -26 24 7 36 30 10 42 7 42 -12z m88 -6 c3 -21 2 -22 -12 -11
-19 16 -21 44 -3 39 6 -3 14 -15 15 -28z m5597 -10 c8 -46 18 -56 35 -35 37
44 55 -18 25 -88 -9 -23 -11 -38 -5 -42 16 -10 12 -35 -6 -35 -11 0 -14 -8
-12 -31 3 -35 -18 -56 -46 -46 -16 6 -16 8 -2 23 9 8 16 24 16 35 0 11 5 28
11 38 14 22 5 65 -19 89 -49 49 -57 84 -29 120 16 21 25 13 32 -28z m-5351 -1
c-9 -10 -21 -19 -26 -19 -13 0 -9 17 8 34 22 23 39 8 18 -15z m4590 18 c13 -9
16 -20 12 -34 -7 -21 -27 -29 -105 -41 -39 -6 -45 -11 -55 -42 -14 -44 -40
-46 -44 -5 -2 17 -8 35 -13 42 -7 8 -4 13 11 18 11 4 28 17 36 31 12 18 26 24
53 25 20 0 45 4 56 9 28 12 29 12 49 -3z m-5484 -18 c0 -11 -27 -12 -34 0 -3
4 -3 11 0 14 8 8 34 -3 34 -14z m750 11 c0 -5 -2 -10 -4 -10 -3 0 -8 5 -11 10
-3 6 -1 10 4 10 6 0 11 -4 11 -10z m4876 -17 c-10 -10 -19 5 -10 18 6 11 8 11
12 0 2 -7 1 -15 -2 -18z m679 7 c-3 -5 -13 -10 -21 -10 -8 0 -12 5 -9 10 3 6
13 10 21 10 8 0 12 -4 9 -10z m-1815 -20 c0 -5 -4 -10 -10 -10 -5 0 -10 5 -10
10 0 6 5 10 10 10 6 0 10 -4 10 -10z m90 -31 c0 -11 -41 -11 -59 0 -7 5 -11
13 -7 19 8 13 66 -4 66 -19z m1229 22 c19 -12 5 -31 -24 -31 -31 0 -40 16 -18
29 22 13 25 13 42 2z m101 -8 c0 -17 -19 -35 -29 -29 -18 12 -12 36 9 36 11 0
20 -3 20 -7z m450 -34 c0 -5 10 -9 22 -7 26 4 33 -12 15 -36 -13 -18 -14 -18
-35 0 -22 19 -30 54 -12 54 6 0 10 -5 10 -11z m-6168 -37 c-30 -4 -55 5 -47
17 3 6 18 5 38 -2 29 -11 30 -12 9 -15z m3108 3 c-20 -24 -3 -36 33 -22 40 17
375 14 407 -3 13 -7 45 -9 89 -4 l68 6 33 -41 c27 -33 40 -41 66 -41 43 0 51
-15 27 -48 -11 -15 -22 -35 -26 -44 -3 -10 -16 -18 -28 -18 -13 0 -37 -15 -55
-32 -70 -71 -91 -88 -151 -118 -35 -17 -63 -34 -63 -37 0 -4 15 -19 33 -34 28
-24 30 -29 17 -41 -35 -32 -123 -57 -185 -52 -95 7 -110 7 -138 0 -15 -3 -27
-13 -27 -20 0 -24 -29 -26 -50 -4 -16 18 -32 21 -97 22 -81 1 -137 13 -238 52
-33 12 -121 41 -195 64 -194 59 -200 62 -200 105 0 20 -7 46 -16 60 -8 13 -14
38 -12 57 3 37 5 37 148 27 l65 -4 -3 27 c-3 23 1 28 25 34 86 19 88 20 85 43
-2 18 2 22 14 17 17 -7 142 16 190 34 16 6 44 8 64 5 19 -3 55 1 80 9 25 8 47
14 49 15 2 1 -2 -6 -9 -14z m3360 -5 c9 -18 8 -20 -15 -20 -24 0 -34 18 -18
33 11 12 22 8 33 -13z m-6100 -20 c0 -13 -7 -20 -20 -20 -23 0 -26 10 -8 28
18 18 28 15 28 -8z m4540 3 c0 -11 -53 -84 -57 -79 -7 7 17 46 27 46 6 0 10 9
10 20 0 11 5 20 10 20 6 0 10 -3 10 -7z m1660 -13 c0 -5 -5 -10 -11 -10 -5 0
-7 5 -4 10 3 6 8 10 11 10 2 0 4 -4 4 -10z m-7430 -45 c0 -8 -6 -15 -14 -15
-18 0 -39 27 -31 40 9 14 45 -6 45 -25z m4790 15 c0 -5 -7 -10 -16 -10 -8 0
-12 5 -9 10 3 6 10 10 16 10 5 0 9 -4 9 -10z m2105 -9 c-2 -5 -9 -21 -15 -37
-11 -28 -12 -28 -26 -10 -24 33 -18 53 16 54 17 0 28 -3 25 -7z m179 -45 c-4
-12 -8 -23 -11 -26 -8 -9 -23 25 -23 54 0 29 0 29 20 11 14 -12 18 -25 14 -39z
m-254 23 c0 -6 -4 -7 -10 -4 -5 3 -10 11 -10 16 0 6 5 7 10 4 6 -3 10 -11 10
-16z m598 9 c16 -16 15 -38 -1 -38 -22 0 -51 26 -43 38 9 15 29 15 44 0z
m-6242 -23 c8 -8 34 -19 57 -25 23 -6 56 -16 73 -21 17 -5 44 -9 60 -9 34 0
74 -25 74 -46 0 -8 11 -19 25 -24 19 -7 25 -17 25 -40 0 -36 -17 -40 -26 -6
-5 22 -55 46 -96 46 -8 0 -30 7 -48 16 -27 14 -37 15 -53 5 -17 -11 -25 -8
-56 17 -20 16 -37 39 -39 51 -3 18 -10 21 -52 21 -46 0 -67 9 -53 24 13 12 94
6 109 -9z m6172 -17 c-2 -6 -10 -14 -16 -16 -7 -2 -10 2 -6 12 7 18 28 22 22
4z m-1708 -29 c9 -16 17 -19 40 -14 23 5 30 2 35 -14 3 -11 19 -30 36 -41 59
-43 21 -53 -71 -20 -30 11 -66 20 -80 20 -53 0 -68 50 -22 74 37 21 49 20 62
-5z m1080 -19 c0 -5 -4 -10 -10 -10 -5 0 -10 5 -10 10 0 6 5 10 10 10 6 0 10
-4 10 -10z m410 -14 c0 -24 -16 -43 -27 -32 -8 8 6 56 17 56 6 0 10 -11 10
-24z m170 -1 c0 -9 -9 -15 -21 -15 -18 0 -19 2 -9 15 7 8 16 15 21 15 5 0 9
-7 9 -15z m273 4 c36 -20 49 -49 22 -49 -13 0 -71 25 -84 36 -1 1 0 7 4 13 8
14 31 14 58 0z m-6793 -18 l31 -18 -41 -37 c-46 -41 -58 -42 -80 -2 -14 26
-14 28 15 52 36 29 37 29 75 5z m1740 -43 c-25 -20 -51 -21 -57 -1 -5 13 46
32 66 25 11 -4 8 -10 -9 -24z m4384 16 c20 -8 20 -13 0 -39 -13 -17 -16 -18
-24 -5 -12 19 -13 50 -1 50 5 0 16 -3 25 -6z m266 -14 c0 -5 -4 -10 -10 -10
-5 0 -10 5 -10 10 0 6 5 10 10 10 6 0 10 -4 10 -10z m-5897 -100 c4 -46 2 -70
-8 -83 -13 -18 -14 -17 -31 8 -16 25 -21 27 -65 21 -42 -6 -49 -4 -67 18 -11
14 -22 23 -25 19 -9 -9 -57 6 -57 18 0 7 12 9 33 5 40 -8 50 -8 112 1 44 7 51
12 69 46 24 46 31 36 39 -53z m4252 51 c3 -5 1 -12 -5 -16 -5 -3 -10 1 -10 9
0 18 6 21 15 7z m112 -27 c36 -27 42 -48 17 -58 -22 -8 -34 1 -50 40 -23 54
-18 57 33 18z m1533 -4 c0 -5 -5 -10 -11 -10 -5 0 -7 5 -4 10 3 6 8 10 11 10
2 0 4 -4 4 -10z m417 -6 c4 -11 -1 -22 -13 -30 -10 -7 -27 -20 -36 -30 -23
-22 -42 -10 -27 19 28 54 63 73 76 41z m-367 -31 c0 -7 -4 -13 -10 -13 -5 0
-10 12 -10 28 0 21 2 24 10 12 5 -8 10 -21 10 -27z m-45 7 c3 -5 1 -10 -4 -10
-6 0 -11 5 -11 10 0 6 2 10 4 10 3 0 8 -4 11 -10z m-1294 -38 c24 -21 30 -34
27 -57 l-3 -30 -22 35 c-12 19 -30 45 -39 58 -23 31 -1 28 37 -6z m-2761 -11
c0 -10 -69 -25 -77 -17 -3 2 -2 9 2 15 8 13 75 15 75 2z m-1610 -9 c0 -5 -7
-17 -15 -28 -14 -19 -14 -19 -15 2 0 11 3 24 7 27 9 10 23 9 23 -1z m3975 -22
c3 -5 13 -10 22 -10 9 0 33 -16 54 -35 22 -19 43 -35 48 -35 14 0 23 -32 12
-43 -19 -19 -106 27 -106 56 0 6 -8 11 -17 13 -10 1 -18 -3 -18 -8 0 -6 -9 -3
-20 7 -23 21 -25 36 -8 53 15 15 25 15 33 2z m1136 -10 c15 0 10 -47 -7 -65
-9 -8 -13 -22 -10 -30 6 -17 -11 -19 -48 -5 -36 13 -35 53 2 85 15 14 33 22
40 20 8 -3 18 -5 23 -5z m759 -5 c0 -14 -29 -35 -49 -35 -15 0 -14 23 1 38 17
17 48 15 48 -3z m-553 -11 c3 -8 0 -21 -6 -27 -10 -9 -16 -8 -27 7 -8 11 -14
23 -14 28 0 15 41 8 47 -8z m-3933 -40 c23 -22 30 -62 16 -79 -15 -18 -41 -19
-93 -4 -37 10 -38 11 -31 47 4 20 9 40 11 45 8 13 81 7 97 -9z m4341 6 c-3 -5
-10 -10 -16 -10 -5 0 -9 5 -9 10 0 6 7 10 16 10 8 0 12 -4 9 -10z m362 -22
c-3 -7 -5 -2 -5 12 0 14 2 19 5 13 2 -7 2 -19 0 -25z m-347 -18 c0 -12 -28
-25 -36 -17 -9 9 6 27 22 27 8 0 14 -5 14 -10z m-600 -35 c7 -8 9 -22 6 -31
-5 -13 -9 -14 -21 -4 -16 13 -21 50 -6 50 5 0 14 -7 21 -15z m-900 -5 c0 -5
-2 -10 -4 -10 -3 0 -8 5 -11 10 -3 6 -1 10 4 10 6 0 11 -4 11 -10z m-2278 -27
c19 -21 28 -107 29 -258 0 -60 4 -144 9 -185 5 -41 17 -153 27 -249 17 -171
17 -173 -2 -187 -28 -21 -58 -13 -73 18 l-12 26 -45 -24 c-65 -37 -142 -42
-198 -15 -102 50 -172 171 -165 287 10 157 199 374 327 374 17 0 31 1 31 3 0
1 -5 40 -10 85 -8 61 -8 88 1 105 22 41 55 49 81 20z m-1743 -11 c15 -29 34
-239 32 -367 -1 -79 6 -173 20 -275 31 -216 31 -232 -4 -244 -57 -20 -68 2
-86 169 -6 55 -15 134 -21 175 -5 41 -14 178 -20 303 -9 177 -9 231 0 242 17
21 67 19 79 -3z m2480 -51 c24 -33 19 -41 -26 -41 -21 0 -33 -5 -33 -13 0 -8
-10 -18 -22 -24 -19 -8 -27 -5 -46 19 l-24 28 30 30 c42 41 92 42 121 1z
m-2072 -42 c15 -6 71 -12 123 -15 52 -2 121 -5 152 -6 89 -4 119 -48 43 -62
-21 -4 -41 -17 -51 -31 -23 -35 -49 -40 -96 -15 -48 25 -58 21 -25 -12 107
-107 138 -314 70 -460 -36 -76 -98 -149 -147 -172 -115 -54 -281 33 -317 167
-26 96 7 241 87 379 24 42 44 81 44 85 0 21 -65 43 -124 43 -35 0 -70 6 -80
13 -16 12 -16 14 4 40 18 22 30 27 68 28 26 0 76 6 112 14 83 17 102 17 137 4z
m1610 -14 c17 -12 20 -22 16 -47 -3 -18 -12 -41 -20 -50 -14 -16 -15 -20 -1
-35 22 -26 25 -47 43 -258 8 -105 23 -232 31 -283 15 -91 15 -95 -4 -115 -19
-21 -19 -23 -1 -62 10 -23 38 -60 63 -83 25 -24 46 -46 46 -50 0 -12 57 -43
72 -40 7 2 13 -4 13 -12 0 -9 -17 -20 -45 -28 -25 -7 -56 -16 -70 -20 -42 -14
-77 3 -137 66 -49 50 -65 61 -103 67 -25 4 -60 13 -78 21 -28 11 -31 16 -23
32 6 11 25 25 43 32 18 7 58 24 89 38 53 24 56 27 49 51 -4 14 -13 78 -20 141
-13 132 -37 329 -48 411 -5 31 -5 66 -1 78 6 15 2 27 -16 45 -30 31 -32 55 -4
90 24 30 71 35 106 11z m2963 -46 c0 -11 -4 -17 -10 -14 -5 3 -10 13 -10 21 0
8 5 14 10 14 6 0 10 -9 10 -21z m-3850 -61 c67 -46 72 -62 76 -215 4 -155 4
-157 46 -305 23 -84 27 -111 18 -127 -11 -21 -53 -28 -76 -13 -16 10 -54 88
-54 109 0 13 -12 4 -40 -29 -74 -86 -172 -110 -260 -65 -84 42 -130 148 -130
299 0 165 79 274 249 344 72 30 128 31 171 2z m4655 -120 c10 -49 9 -96 -4
-168 -18 -102 -20 -108 -37 -112 -11 -2 -21 -21 -29 -52 -13 -49 -12 -49 20
-81 17 -18 42 -38 54 -44 14 -8 21 -21 21 -41 0 -16 11 -46 25 -66 25 -37 32
-64 16 -64 -5 0 -11 9 -14 20 -6 24 -29 26 -47 5 -10 -12 -10 -21 0 -44 11
-29 12 -29 40 -13 40 23 50 7 16 -26 -19 -18 -30 -23 -33 -14 -7 18 -23 15
-23 -5 0 -40 -39 -138 -59 -151 -40 -27 -23 -98 20 -87 34 8 78 -37 59 -60
-13 -16 -75 -21 -84 -6 -3 4 -34 12 -68 15 -74 9 -98 20 -98 46 0 10 -6 20
-12 22 -8 3 -14 26 -15 59 0 30 -2 57 -2 61 -1 3 -20 25 -43 47 -55 52 -96 55
-137 11 -27 -30 -28 -31 -50 -13 -17 14 -24 33 -28 68 -5 59 -20 101 -45 134
-12 16 -18 41 -18 78 0 53 -1 56 -57 109 -45 44 -62 54 -80 49 -13 -3 -37 2
-53 10 -32 16 -41 45 -14 45 12 0 14 7 10 28 -8 37 6 56 36 49 19 -5 29 0 46
22 20 27 93 61 133 61 10 0 30 11 44 24 23 21 33 24 73 19 66 -7 116 7 120 36
3 18 8 20 25 15 41 -14 92 -5 217 36 51 17 67 12 75 -22z m79 16 c3 -9 6 -29
6 -45 0 -24 -4 -29 -24 -29 -32 0 -39 12 -21 36 8 10 15 27 15 37 0 21 16 22
24 1z m-1708 -129 c-7 -19 -36 -19 -36 0 0 17 33 38 38 24 2 -5 1 -16 -2 -24z
m292 9 c28 -19 28 -41 1 -49 -35 -11 -80 45 -46 58 19 8 21 8 45 -9z m-6340
-28 c3 -13 -1 -17 -14 -14 -11 2 -20 11 -22 22 -3 13 1 17 14 14 11 -2 20 -11
22 -22z m1651 -99 c56 -93 59 -146 7 -118 -25 14 -49 57 -61 110 -4 19 -14 41
-21 49 -20 20 -17 32 9 32 17 -1 33 -18 66 -73z m4241 -16 c5 -11 10 -31 10
-45 0 -20 -5 -26 -23 -26 -53 0 -88 57 -49 79 27 16 50 13 62 -8z m720 -72
c36 -46 50 -86 34 -102 -3 -3 -19 -1 -35 5 -54 19 -96 148 -48 148 5 0 27 -23
49 -51z m-430 -20 c0 -11 -27 -12 -34 0 -3 4 -3 11 0 14 8 8 34 -3 34 -14z
m374 -68 c8 -13 -21 -34 -39 -27 -25 9 -18 36 9 36 14 0 27 -4 30 -9z m1152
-18 c-10 -10 -19 5 -10 18 6 11 8 11 12 0 2 -7 1 -15 -2 -18z m-2323 -14 c28
-15 37 -28 37 -58 0 -55 -70 -81 -110 -41 -27 27 -25 56 5 85 27 28 37 30 68
14z m165 -17 c31 -39 1 -102 -48 -102 -37 0 -62 30 -58 71 5 55 72 74 106 31z
m289 -8 c20 -31 10 -71 -22 -86 -55 -25 -111 24 -87 77 22 47 80 52 109 9z
m117 23 c13 -10 17 -24 14 -62 -3 -47 -5 -50 -31 -53 -61 -7 -94 78 -45 112
27 19 39 20 62 3z m-266 -9 c17 -17 15 -74 -4 -92 -53 -54 -138 30 -87 86 18
20 73 24 91 6z m-5560 -17 c3 -8 -1 -12 -9 -9 -7 2 -15 10 -17 17 -3 8 1 12 9
9 7 -2 15 -10 17 -17z m3950 -59 c24 -16 2 -43 -31 -40 -38 4 -47 25 -15 37
29 12 30 12 46 3z m-4024 -91 c10 -11 22 -39 27 -62 9 -37 7 -45 -12 -65 -34
-36 -71 -31 -108 13 -36 44 -43 105 -13 122 29 18 87 13 106 -8z m6677 -94
c-8 -8 -16 -7 -27 5 -14 14 -14 15 11 10 19 -3 23 -8 16 -15z m-6511 -32 c0
-16 -6 -25 -15 -25 -9 0 -15 9 -15 25 0 16 6 25 15 25 9 0 15 -9 15 -25z
m7050 -105 c77 -61 74 -173 -3 -133 -16 8 -53 17 -82 20 -50 5 -54 4 -76 -27
-41 -56 -99 -73 -165 -50 -61 21 -67 111 -9 139 41 20 109 22 150 5 35 -14 61
-11 50 6 -12 20 8 40 38 38 20 -2 34 4 41 15 14 22 11 22 56 -13z m-1657 -22
c18 -28 -9 -50 -57 -46 -33 2 -41 7 -41 23 0 22 40 46 69 43 10 -2 24 -10 29
-20z m-1683 -37 c0 -28 -52 -45 -109 -34 -32 5 -33 7 -16 19 10 8 29 14 41 14
13 0 26 5 29 10 3 6 17 10 31 10 17 0 24 -6 24 -19z m2110 -32 c-7 -11 -24
-25 -39 -30 -31 -11 -57 -50 -48 -72 3 -8 26 -24 51 -35 46 -22 94 -26 151
-13 17 4 51 1 79 -7 40 -11 64 -12 123 -3 41 6 96 11 124 11 27 0 75 9 107 20
56 20 57 20 82 2 33 -25 29 -64 -15 -157 -18 -38 -36 -88 -40 -110 -5 -29 -19
-51 -49 -80 -28 -26 -47 -55 -55 -83 -15 -52 -7 -62 76 -89 l53 -17 -6 -55
c-4 -31 -11 -64 -16 -74 -13 -25 -80 -54 -143 -61 -109 -14 -169 -26 -178 -35
-6 -6 -5 -21 2 -42 l11 -32 -96 7 c-90 6 -155 23 -166 42 -3 5 -1 23 4 41 6
24 19 37 53 54 24 12 46 28 49 36 3 7 -15 36 -39 63 -25 28 -45 58 -45 67 0
17 -63 118 -80 128 -19 11 -10 39 22 72 18 18 37 33 42 34 6 0 24 16 40 35 28
34 28 35 10 55 -33 36 -143 22 -210 -28 -17 -13 -41 -23 -54 -23 -16 0 -20 -4
-16 -15 3 -8 2 -15 -3 -15 -5 0 -14 7 -21 15 -7 8 -10 15 -7 15 3 0 0 15 -7
33 -8 17 -17 53 -20 79 -7 46 -6 49 32 85 28 27 44 55 57 98 10 33 23 66 30
73 12 13 79 29 133 31 30 1 32 -1 22 -20z m-1682 -131 c11 -15 11 -58 0 -58
-29 2 -68 14 -68 22 0 38 46 63 68 36z m3239 -253 c49 -9 104 -19 123 -23 l35
-8 3 -102 c3 -111 -1 -118 -48 -82 -14 11 -28 20 -33 20 -4 0 -26 14 -49 30
-23 17 -61 36 -85 42 -46 11 -103 56 -103 80 0 19 37 58 55 58 8 0 54 -7 102
-15z m-799 -205 c55 -25 112 -69 112 -86 0 -17 6 -17 -105 1 -131 21 -149 27
-153 55 -8 50 68 66 146 30z m-934 -232 c24 -34 20 -64 -13 -87 -30 -22 -52
-20 -84 7 -9 8 -27 20 -40 26 -12 6 -23 21 -25 33 -3 18 4 22 55 31 86 14 91
14 107 -10z m-2146 -54 c26 -17 29 -44 5 -44 -24 0 -88 23 -91 33 -8 30 -1 38
31 32 17 -4 42 -13 55 -21z m3620 -86 c7 -7 12 -20 12 -30 0 -24 27 -67 59
-95 15 -12 22 -23 16 -23 -5 0 7 -11 29 -24 29 -19 44 -38 62 -83 46 -112 26
-153 -76 -153 -30 0 -66 -7 -80 -15 -14 -7 -44 -23 -68 -35 -31 -15 -48 -32
-59 -58 -15 -35 -89 -110 -123 -123 -25 -11 -77 17 -94 49 -26 50 -31 152 -11
211 14 43 27 59 73 94 70 52 72 54 72 98 0 36 21 66 38 56 19 -13 35 13 34 57
-1 44 0 47 28 53 16 3 35 12 41 19 14 17 31 18 47 2z m-7332 -273 c12 -8 27
-29 34 -47 7 -18 22 -42 32 -54 10 -11 22 -35 27 -52 11 -37 -10 -60 -49 -55
-51 6 -72 5 -79 -4 -3 -5 -13 -12 -22 -15 -14 -6 -17 8 -23 100 -4 59 -4 115
-1 125 9 21 52 23 81 2z m2980 -8 c48 -28 88 -57 81 -57 -5 0 -1 -7 7 -16 17
-17 21 -44 7 -44 -5 0 -8 -7 -7 -16 1 -16 -34 -27 -76 -25 -10 1 -40 3 -68 4
-52 2 -51 1 -53 55 -2 46 41 112 72 112 9 0 25 -6 37 -13z m-2208 -32 c18 -15
56 -30 103 -39 41 -9 101 -29 133 -46 32 -16 63 -30 69 -30 15 0 105 -61 111
-76 5 -12 -28 -44 -46 -44 -4 0 -19 -11 -35 -25 -107 -96 -107 -97 -133 -91
-14 4 -31 8 -38 9 -7 2 -45 35 -85 74 -40 38 -99 86 -132 106 -74 45 -113 97
-97 131 6 15 23 27 41 31 17 4 33 11 36 16 11 16 43 10 73 -16z m-681 -216
c15 -5 30 -13 33 -17 3 -4 31 -29 63 -56 31 -27 57 -55 57 -63 0 -29 41 -90
87 -128 48 -41 103 -63 157 -63 27 0 56 -23 56 -44 0 -5 -30 -23 -67 -40 -66
-30 -68 -30 -147 -20 -97 13 -146 11 -164 -5 -22 -21 -45 -14 -88 26 -41 37
-84 113 -84 148 0 10 -16 29 -35 42 -33 22 -35 27 -35 82 0 56 15 89 41 89 6
0 7 5 3 12 -5 7 0 9 14 6 14 -4 28 2 43 18 26 27 28 28 66 13z m4298 -338 c50
-10 115 -28 145 -39 37 -13 95 -22 175 -26 116 -6 254 -35 286 -60 8 -6 27
-28 42 -49 64 -85 101 -85 200 3 44 39 80 62 104 67 21 4 121 8 223 8 170 0
193 -3 281 -27 87 -24 304 -123 354 -162 18 -14 -97 -15 -1172 -16 l-1192 0
-24 26 c-13 14 -29 48 -36 76 -11 48 -10 53 11 76 76 84 145 128 219 141 80
15 281 5 384 -18z m-3427 -14 c5 -24 -26 -33 -46 -13 -15 15 -15 18 -2 26 21
14 44 8 48 -13z"/>
<path d="M1654 16347 c-11 -29 0 -92 16 -92 11 0 15 12 15 49 0 49 -19 74 -31
43z"/>
<path d="M6730 16311 c-24 -47 0 -88 45 -77 20 5 25 12 25 39 0 54 -47 79 -70
38z"/>
<path d="M7102 16331 c-16 -10 -12 -53 5 -58 6 -2 16 4 22 15 13 24 -7 56 -27
43z"/>
<path d="M7892 16318 c-7 -7 -12 -40 -12 -78 0 -54 4 -70 20 -85 19 -17 21
-17 40 0 16 15 20 31 20 85 0 67 -10 90 -40 90 -9 0 -21 -5 -28 -12z"/>
<path d="M8607 16263 c-4 -3 -7 -28 -7 -54 0 -38 4 -51 20 -59 41 -22 77 50
50 101 -10 18 -50 26 -63 12z"/>
<path d="M7204 16186 c-9 -24 4 -48 23 -44 12 2 18 12 18 28 0 29 -32 41 -41
16z"/>
<path d="M1640 16160 c0 -5 5 -10 10 -10 6 0 10 5 10 10 0 6 -4 10 -10 10 -5
0 -10 -4 -10 -10z"/>
<path d="M1645 16129 c-10 -15 3 -25 16 -12 7 7 7 13 1 17 -6 3 -14 1 -17 -5z"/>
<path d="M2176 14721 c-10 -11 -16 -26 -13 -33 3 -8 6 -5 6 7 1 16 3 17 11 5
13 -21 36 2 23 24 -8 15 -11 15 -27 -3z"/>
<path d="M3357 14476 c-8 -8 -28 -14 -43 -13 -22 2 -30 -3 -32 -18 -2 -11 -23
-36 -47 -55 -24 -19 -49 -47 -55 -62 -7 -15 -23 -34 -36 -43 -13 -8 -24 -24
-24 -35 0 -10 -4 -22 -10 -25 -5 -3 -10 -15 -10 -26 0 -11 -7 -30 -15 -43 -14
-21 -13 -24 5 -41 11 -10 20 -24 20 -32 0 -18 25 -17 40 2 7 8 18 15 25 15 7
0 18 7 25 15 7 8 21 15 31 15 18 0 58 18 69 31 11 14 110 38 174 43 96 8 109
23 108 121 -1 46 -24 70 -53 55 -24 -13 -48 -3 -42 19 6 25 -22 47 -42 31 -16
-13 -20 -7 -27 35 -4 25 -40 31 -61 11z"/>
<path d="M2977 14023 c-6 -14 -2 -33 8 -33 6 -1 11 8 13 20 3 19 -13 29 -21
13z"/>
<path d="M4710 13550 c-8 -5 -18 -6 -22 -4 -4 3 -8 0 -8 -5 0 -14 37 -14 45 0
10 15 2 20 -15 9z"/>
<path d="M4584 13535 c-4 -8 -10 -15 -16 -15 -5 0 -6 5 -3 11 4 6 -2 5 -14 -2
-22 -14 -29 -34 -23 -61 5 -21 42 -24 42 -4 0 10 8 13 28 10 17 -3 22 -1 14 4
-10 7 -9 12 4 23 15 13 15 14 -7 20 -24 7 -24 7 -1 8 28 1 30 21 2 21 -11 0
-23 -7 -26 -15z m-4 -35 c0 -5 -5 -10 -11 -10 -5 0 -7 5 -4 10 3 6 8 10 11 10
2 0 4 -4 4 -10z"/>
<path d="M1860 13430 c-13 -8 -12 -10 3 -10 9 0 17 5 17 10 0 12 -1 12 -20 0z"/>
<path d="M5869 12214 c-25 -31 -70 -46 -125 -42 -62 3 -53 12 -117 -118 -19
-38 -39 -86 -46 -105 -6 -19 -29 -56 -50 -81 -41 -50 -153 -150 -159 -143 -3
2 -13 0 -22 -5 -27 -15 -31 -84 -7 -159 12 -38 22 -58 27 -51 15 24 27 -20 30
-106 0 -16 7 -20 30 -19 16 1 33 4 36 8 13 13 125 7 154 -8 17 -9 40 -13 53
-10 41 11 99 -22 107 -60 1 -5 6 -15 12 -22 5 -7 6 -18 2 -25 -4 -7 -4 -10 0
-7 3 3 27 -13 51 -37 46 -44 85 -51 85 -14 0 29 32 34 51 9 16 -22 58 -21 44
1 -3 5 -3 10 2 10 4 0 9 12 9 26 2 26 45 80 67 82 49 5 83 10 87 12 3 1 9 2
13 1 5 -1 6 3 3 7 -3 5 6 22 19 36 30 33 30 32 4 39 -13 4 -20 12 -17 24 4 20
26 25 47 9 18 -14 41 -16 41 -5 0 5 7 9 15 9 7 0 18 6 22 13 11 17 44 15 65
-3 23 -21 46 -134 52 -261 4 -79 9 -105 20 -107 7 -2 16 -17 20 -33 5 -28 9
-30 42 -27 43 3 60 24 50 61 -4 19 -11 25 -23 20 -12 -5 -15 -2 -10 9 3 9 3
19 0 22 -15 14 -8 59 11 71 16 12 19 26 19 77 -1 35 3 70 7 79 6 10 3 26 -6
43 -8 16 -14 35 -14 42 0 8 -4 14 -10 14 -5 0 -10 14 -10 30 0 28 2 30 21 20
19 -11 20 -10 9 9 -6 12 -15 21 -19 21 -15 0 1 43 23 67 18 19 32 23 90 23 56
0 67 3 63 15 -7 16 9 30 16 15 3 -6 4 -5 3 2 -2 7 -9 12 -15 11 -6 -2 -11 6
-11 17 0 10 -7 23 -16 28 -11 6 -13 12 -6 16 6 4 8 14 5 23 -4 11 -3 14 5 9 7
-4 12 -13 12 -20 0 -8 7 -20 17 -27 15 -13 15 -12 4 10 -9 17 -10 26 -2 34 14
14 15 40 1 32 -5 -3 -10 -1 -10 4 0 17 -18 13 -38 -10 -12 -12 -18 -29 -15
-42 4 -20 3 -20 -10 3 -9 14 -13 28 -11 32 5 8 -11 12 -30 9 -15 -3 -37 22
-32 35 7 19 -14 29 -25 13 -13 -20 -11 -29 6 -29 8 0 12 -6 9 -14 -3 -7 2 -20
10 -29 9 -9 16 -22 16 -29 0 -7 -8 -1 -18 15 -11 19 -25 27 -44 27 -20 0 -26
-4 -22 -14 4 -11 -2 -14 -25 -11 -44 6 -101 35 -95 49 3 7 -10 19 -28 27 -18
8 -32 20 -30 27 1 6 -7 21 -17 31 -11 11 -23 37 -27 58 -3 21 -14 47 -23 58
-10 11 -25 33 -35 48 -10 17 -23 26 -31 23 -19 -7 -82 20 -93 39 -6 12 -29 16
-96 18 -86 2 -89 3 -115 35 -31 37 -34 38 -52 16z m91 -309 c26 -10 29 -14 14
-14 -12 -1 -36 -17 -53 -38 l-31 -36 0 36 c0 69 9 75 70 52z"/>
<path d="M6802 11712 c-20 -6 -13 -19 13 -24 14 -3 25 -1 25 3 0 5 7 5 17 2
10 -4 14 -2 10 4 -8 12 -47 21 -65 15z"/>
<path d="M4352 11675 c-16 -35 -15 -37 7 -23 11 6 19 20 18 30 -2 25 -12 22
-25 -7z"/>
<path d="M6890 11654 c-14 -7 -47 -14 -75 -15 -44 0 -111 -16 -77 -18 22 -1
61 -54 62 -82 0 -57 63 -64 74 -8 5 29 8 30 45 28 22 -2 44 1 48 6 4 4 2 5 -4
1 -7 -4 -13 -2 -13 3 0 6 -6 11 -14 11 -16 0 -32 50 -19 59 11 8 15 31 6 30
-5 -1 -19 -7 -33 -15z"/>
<path d="M6968 11623 c7 -3 16 -2 19 1 4 3 -2 6 -13 5 -11 0 -14 -3 -6 -6z"/>
<path d="M6370 11470 c0 -5 5 -10 10 -10 6 0 10 5 10 10 0 6 -4 10 -10 10 -5
0 -10 -4 -10 -10z"/>
<path d="M4590 11328 c-48 -79 -7 -193 81 -226 19 -8 30 -6 46 6 17 14 22 32
26 92 3 41 9 83 12 92 12 30 -36 64 -93 67 -49 2 -53 0 -72 -31z"/>
<path d="M3814 11230 c-12 -5 -25 -13 -28 -19 -5 -8 -58 0 -70 11 -1 2 -10 -3
-19 -11 -13 -10 -14 -17 -6 -33 9 -17 18 -19 51 -15 46 6 84 -7 91 -32 2 -9
21 -25 41 -35 35 -19 37 -19 71 0 19 10 35 20 35 23 0 2 -10 24 -22 48 -19 37
-28 45 -72 58 -27 8 -50 15 -50 14 -1 0 -11 -4 -22 -9z"/>
<path d="M5711 11161 c-21 -16 -23 -23 -16 -70 5 -38 14 -59 33 -77 15 -13 30
-24 34 -24 3 0 4 21 1 48 -2 26 -5 67 -6 91 -2 51 -12 58 -46 32z"/>
<path d="M5989 11128 c-1 -43 -5 -92 -14 -150 -5 -31 -4 -48 3 -48 5 0 12 -8
15 -19 3 -11 16 -20 35 -23 24 -3 36 2 57 24 14 15 27 37 28 48 1 11 5 20 9
20 4 0 8 9 8 21 0 14 -10 24 -29 32 -16 6 -40 27 -53 48 -13 20 -26 35 -30 32
-5 -2 -8 5 -8 16 0 35 -20 34 -21 -1z"/>
<path d="M3227 11063 c-5 -9 -10 -50 -8 -71 1 -17 103 -11 109 6 10 30 -85 91
-101 65z"/>
<path d="M2938 11023 c-9 -2 -29 -29 -45 -59 -15 -29 -31 -54 -35 -54 -17 0
-7 -50 13 -69 12 -11 18 -24 15 -30 -4 -5 -2 -12 4 -16 5 -3 12 -28 16 -55 4
-28 10 -50 14 -50 13 0 32 29 26 39 -6 9 32 45 55 53 14 5 40 110 41 167 2 64
-37 92 -104 74z"/>
<path d="M8597 10842 c-28 -30 -17 -59 16 -46 19 7 28 29 21 49 -8 20 -17 19
-37 -3z"/>
<path d="M4124 10795 c-10 -26 8 -47 43 -51 22 -3 33 1 39 14 13 30 12 38 -5
38 -9 1 -28 4 -43 9 -22 5 -29 3 -34 -10z"/>
<path d="M8197 10783 c-4 -3 -7 -14 -7 -23 0 -13 6 -16 25 -12 28 5 33 27 9
36 -19 7 -19 7 -27 -1z"/>
<path d="M4283 10685 c-8 -21 -2 -24 25 -14 13 5 20 13 17 19 -9 15 -35 12
-42 -5z"/>
<path d="M4378 10637 c-6 -7 -23 -11 -38 -9 -31 4 -53 -18 -48 -50 2 -19 10
-23 36 -24 24 -1 40 -9 56 -29 20 -25 23 -26 36 -10 11 13 11 18 1 24 -10 7
-10 12 0 28 24 39 -13 101 -43 70z"/>
<path d="M4862 10620 c-18 -16 -42 -30 -55 -30 -13 0 -36 -11 -51 -25 -24 -23
-25 -30 -3 -26 4 0 7 -3 7 -8 0 -43 122 19 145 73 23 54 3 61 -43 16z"/>
<path d="M2895 10632 c-5 -4 -11 -13 -13 -20 -2 -10 2 -10 18 -2 11 6 18 15
15 21 -7 11 -7 11 -20 1z"/>
<path d="M2905 10585 c-10 -19 -25 -37 -35 -40 -25 -8 -33 -56 -13 -72 14 -11
19 -9 34 14 10 15 16 30 14 34 -5 7 24 35 33 32 3 -1 8 -6 11 -11 4 -6 15 0
28 13 18 21 19 26 7 42 -13 17 -15 17 -29 -1 -15 -19 -15 -19 -15 2 0 33 -17
27 -35 -13z"/>
<path d="M2693 10489 c-12 -12 -6 -49 8 -49 5 0 9 14 9 30 0 33 -1 35 -17 19z"/>
<path d="M4409 10498 c-13 -41 12 -71 38 -45 18 17 6 47 -18 47 -10 0 -19 -1
-20 -2z"/>
<path d="M6900 10475 c0 -8 5 -15 10 -15 6 0 10 7 10 15 0 8 -4 15 -10 15 -5
0 -10 -7 -10 -15z"/>
<path d="M5061 10407 c-25 -12 -65 -42 -90 -67 -25 -25 -74 -65 -109 -88 -76
-52 -98 -82 -82 -111 9 -18 8 -23 -12 -30 -17 -6 -3 -10 57 -15 96 -8 160 8
178 44 13 26 59 42 95 33 22 -5 24 -10 19 -44 -4 -34 -2 -41 23 -59 17 -12 44
-20 68 -20 33 0 41 4 46 23 10 38 7 46 -29 78 -19 18 -35 42 -35 53 0 20 63
124 83 138 6 3 20 4 31 2 12 -2 29 -1 38 2 20 6 24 33 6 35 -80 7 -83 6 -80
-22 1 -4 -7 -5 -18 -2 -15 4 -18 11 -14 29 6 24 -9 34 -21 14 -4 -7 -12 -7
-24 0 -10 5 -21 7 -24 4 -3 -3 -16 1 -29 10 -28 20 -24 20 -77 -7z"/>
<path d="M9136 10248 c-14 -20 -14 -24 1 -40 21 -24 60 -23 73 1 13 25 13 54
0 46 -5 -3 -10 -1 -10 4 0 20 -49 11 -64 -11z"/>
<path d="M9190 10165 c7 -9 15 -13 17 -11 7 7 -7 26 -19 26 -6 0 -6 -6 2 -15z"/>
<path d="M4538 10125 c29 -7 85 -16 125 -19 l72 -5 -51 13 c-28 7 -84 16 -125
19 l-74 6 53 -14z"/>
<path d="M5886 10114 c-10 -26 -7 -52 7 -57 19 -7 47 12 47 31 0 36 -42 56
-54 26z"/>
<path d="M5980 10000 c-27 -4 -36 -10 -37 -26 -3 -24 27 -34 102 -34 52 0 72
19 53 49 -13 22 -32 23 -118 11z"/>
<path d="M7392 9978 c-22 -22 -12 -43 53 -101 76 -68 128 -85 140 -46 6 19 -2
31 -48 74 -89 83 -120 98 -145 73z"/>
<path d="M7750 9869 c-46 -28 -45 -26 -30 -44 7 -8 9 -15 4 -15 -4 0 -3 -5 3
-11 8 -8 17 -7 34 5 13 9 42 16 64 16 68 0 86 32 30 56 -46 19 -64 18 -105 -7z"/>
<path d="M8393 9850 c-2 -24 12 -27 21 -4 8 22 8 24 -7 24 -7 0 -13 -9 -14
-20z"/>
<path d="M8371 9817 c-6 -6 -11 -17 -11 -24 0 -7 -11 -15 -24 -19 -32 -8 -42
-35 -20 -51 10 -7 15 -13 11 -13 -4 0 -1 -10 7 -22 8 -13 15 -27 16 -33 1 -20
47 -22 85 -4 57 28 60 40 17 64 -21 12 -38 29 -38 40 -1 11 -2 30 -3 41 -1 26
-24 37 -40 21z"/>
<path d="M7404 9738 c-4 -6 34 -20 87 -32 30 -6 64 20 38 28 -24 8 -121 11
-125 4z"/>
<path d="M7561 9731 c-25 -16 6 -41 50 -41 44 0 55 24 15 34 -13 3 -30 8 -38
11 -7 3 -19 1 -27 -4z"/>
<path d="M8530 9661 c0 -11 5 -23 11 -26 5 -4 8 -12 6 -18 -6 -17 11 -47 27
-47 27 0 26 32 -1 71 -31 43 -43 49 -43 20z"/>
<path d="M8466 9388 c-16 -9 -18 -19 -12 -77 5 -52 3 -74 -10 -99 -17 -36 -14
-48 11 -39 9 4 15 19 15 40 0 18 9 52 21 76 14 29 18 52 14 72 -8 35 -15 40
-39 27z"/>
<path d="M8707 9308 c-7 -24 5 -48 28 -54 61 -15 116 12 102 50 -8 20 -123 24
-130 4z"/>
<path d="M9146 9233 c-12 -12 -5 -23 14 -23 11 0 20 4 20 9 0 11 -26 22 -34
14z"/>
<path d="M9208 8324 c-5 -4 -8 -16 -8 -28 0 -14 3 -17 11 -9 6 6 9 19 7 28 -1
9 -6 13 -10 9z"/>
<path d="M8260 7980 c0 -18 40 -50 63 -50 20 0 19 3 -12 30 -35 31 -51 37 -51
20z"/>
<path d="M8185 7788 c-9 -29 -14 -278 -5 -283 5 -3 32 15 60 41 46 43 49 49
35 64 -10 11 -17 42 -19 83 -2 47 -8 73 -21 87 -20 23 -44 26 -50 8z"/>
<path d="M8580 7745 c-5 -13 -23 -31 -40 -40 -35 -18 -37 -38 -16 -154 8 -42
20 -107 26 -146 7 -38 19 -86 27 -105 l14 -35 19 24 c21 28 39 86 79 256 16
66 30 127 32 135 3 12 -9 16 -58 18 -47 2 -63 7 -63 17 0 8 5 15 10 15 16 0
12 27 -5 34 -10 4 -19 -3 -25 -19z"/>
<path d="M8105 7750 c-3 -5 -1 -10 4 -10 6 0 11 5 11 10 0 6 -2 10 -4 10 -3 0
-8 -4 -11 -10z"/>
<path d="M8347 7698 c-14 -18 -28 -44 -32 -58 -7 -22 -2 -19 34 17 38 39 53
73 32 73 -6 0 -21 -15 -34 -32z"/>
<path d="M8436 7624 c-4 -9 -3 -32 0 -51 6 -34 7 -35 25 -16 17 16 18 24 8 51
-12 35 -24 41 -33 16z"/>
<path d="M8441 7453 c-24 -31 -44 -64 -45 -72 -1 -19 75 -35 86 -18 9 15 33
-6 48 -43 21 -50 29 -33 14 28 -24 94 -45 162 -52 162 -4 0 -27 -26 -51 -57z"/>
<path d="M8309 7463 c-6 -16 -17 -41 -25 -56 -8 -16 -17 -47 -20 -70 l-5 -42
23 28 c111 132 113 137 73 155 -34 16 -34 16 -46 -15z"/>
<path d="M8675 7333 c-16 -32 -34 -61 -39 -65 -6 -4 -7 -10 -3 -15 5 -4 11 -2
15 4 4 6 16 11 27 10 17 -2 21 6 26 58 4 33 6 61 5 63 -2 1 -16 -24 -31 -55z"/>
<path d="M8302 7268 c-29 -37 -32 -49 -32 -107 0 -36 4 -71 8 -77 4 -6 24 -14
45 -18 28 -5 37 -12 37 -26 0 -11 4 -20 9 -20 14 0 28 22 50 79 32 84 71 118
71 61 0 -40 22 -39 54 3 29 38 34 62 11 53 -20 -7 -47 3 -39 16 3 5 3 20 0 34
l-7 25 -44 -43 c-31 -30 -45 -51 -45 -70 0 -40 -21 -79 -39 -76 -17 4 -18 15
-6 74 7 39 9 38 -42 17 -25 -10 -13 18 19 46 32 29 33 29 14 50 -11 12 -22 21
-25 21 -4 0 -21 -19 -39 -42z"/>
<path d="M8220 7190 c0 -5 5 -10 11 -10 5 0 7 5 4 10 -3 6 -8 10 -11 10 -2 0
-4 -4 -4 -10z"/>
<path d="M7994 7046 c-34 -73 -35 -76 -19 -107 14 -27 15 -38 5 -76 -13 -45
-8 -65 12 -45 6 6 11 34 9 61 -2 43 14 144 35 219 13 45 -7 20 -42 -52z"/>
<path d="M8585 7051 c-5 -8 -18 -11 -37 -7 -37 7 -34 -13 5 -32 15 -7 27 -17
27 -23 0 -5 9 -9 20 -9 14 0 20 7 20 23 0 31 -24 65 -35 48z"/>
<path d="M8355 6981 c-3 -5 -1 -12 5 -16 5 -3 10 1 10 9 0 18 -6 21 -15 7z"/>
<path d="M9180 6933 c0 -35 13 -63 30 -63 3 0 3 21 0 47 -6 59 -30 71 -30 16z"/>
<path d="M8593 6938 c-27 -13 -28 -18 -8 -64 13 -31 17 -34 35 -24 17 9 21 19
18 52 -3 45 -12 52 -45 36z"/>
<path d="M8310 6888 c0 -31 4 -38 19 -38 31 0 33 16 6 47 l-24 28 -1 -37z"/>
<path d="M8495 6890 c-11 -18 6 -51 32 -61 35 -13 40 -5 20 36 -16 34 -40 45
-52 25z"/>
<path d="M8400 6849 c0 -5 5 -7 10 -4 6 3 10 8 10 11 0 2 -4 4 -10 4 -5 0 -10
-5 -10 -11z"/>
<path d="M8340 6801 c0 -26 16 -35 24 -15 10 25 7 34 -9 34 -8 0 -15 -9 -15
-19z"/>
<path d="M8080 6771 c0 -12 5 -21 10 -21 6 0 10 6 10 14 0 8 -4 18 -10 21 -5
3 -10 -3 -10 -14z"/>
<path d="M8520 6770 c0 -11 6 -20 14 -20 21 0 30 -20 17 -33 -14 -14 -14 -27
-1 -27 19 0 42 49 36 75 -5 20 -13 25 -36 25 -23 0 -30 -4 -30 -20z"/>
<path d="M8465 6729 c-5 -15 -2 -25 9 -31 9 -5 16 -16 16 -23 0 -8 4 -15 9
-15 6 0 3 20 -6 45 -8 25 -16 45 -18 45 -2 0 -7 -10 -10 -21z"/>
<path d="M8300 6655 c0 -14 8 -29 20 -35 23 -12 25 -4 10 34 -12 33 -30 34
-30 1z"/>
<path d="M3127 9523 c-10 -10 13 -33 34 -33 10 0 30 5 45 10 21 9 25 13 15 23
-10 9 -15 8 -27 -7 -13 -18 -15 -18 -32 -3 -20 19 -26 20 -35 10z"/>
<path d="M2846 9184 c-21 -22 -56 -77 -56 -90 0 -2 15 5 33 16 49 29 79 64 71
83 -8 23 -17 21 -48 -9z"/>
<path d="M5720 9109 c0 -5 5 -7 10 -4 6 3 10 8 10 11 0 2 -4 4 -10 4 -5 0 -10
-5 -10 -11z"/>
<path d="M5992 8929 c2 -7 10 -15 17 -17 8 -3 12 1 9 9 -2 7 -10 15 -17 17 -8
3 -12 -1 -9 -9z"/>
<path d="M5914 8879 c-9 -16 12 -33 31 -25 14 5 15 9 5 21 -15 18 -26 19 -36
4z"/>
<path d="M2432 8768 c-15 -15 -16 -45 -1 -54 14 -8 25 4 33 39 7 29 -10 37
-32 15z"/>
<path d="M1590 8106 c0 -2 16 -6 35 -8 19 -2 35 0 35 4 0 4 -16 8 -35 8 -19 0
-35 -2 -35 -4z"/>
<path d="M1657 7443 c-15 -14 -6 -24 16 -18 35 11 44 25 16 25 -14 0 -29 -3
-32 -7z"/>
<path d="M3471 6609 c-15 -43 -14 -72 4 -95 15 -19 15 -19 35 5 22 25 26 71
10 102 -16 28 -37 23 -49 -12z"/>
<path d="M2100 7125 c0 -9 9 -15 21 -15 18 0 19 2 9 15 -7 8 -16 15 -21 15 -5
0 -9 -7 -9 -15z"/>
<path d="M2195 7100 c-3 -5 -1 -10 4 -10 6 0 11 5 11 10 0 6 -2 10 -4 10 -3 0
-8 -4 -11 -10z"/>
<path d="M2991 7001 c-14 -25 -14 -48 -1 -56 18 -11 41 16 37 43 -4 33 -22 39
-36 13z"/>
<path d="M3151 6844 c0 -11 3 -14 6 -6 3 7 2 16 -1 19 -3 4 -6 -2 -5 -13z"/>
<path d="M7585 6740 c-3 -5 -1 -10 4 -10 6 0 11 5 11 10 0 6 -2 10 -4 10 -3 0
-8 -4 -11 -10z"/>
<path d="M6877 6284 c-3 -4 0 -16 8 -28 8 -11 15 -34 15 -51 0 -37 47 -79 71
-64 22 14 29 11 41 -16 12 -27 45 -34 54 -11 3 8 1 23 -5 35 -8 13 -8 28 -1
46 8 22 7 27 -13 35 -12 5 -38 11 -58 15 -20 3 -44 14 -54 25 -18 20 -46 26
-58 14z"/>
<path d="M6400 5964 c0 -8 5 -12 10 -9 6 4 8 11 5 16 -9 14 -15 11 -15 -7z"/>
<path d="M5798 5483 c-27 -29 -50 -71 -63 -113 l-7 -25 24 23 c13 12 28 22 32
22 31 0 104 89 91 110 -12 19 -51 10 -77 -17z"/>
<path d="M6458 5483 c-48 -55 -106 -187 -122 -276 -19 -101 87 -218 169 -187
31 12 93 77 117 124 18 35 19 51 13 158 -7 109 -9 121 -36 158 -27 37 -33 40
-78 40 -33 0 -53 -5 -63 -17z"/>
<path d="M6000 5265 c-32 -23 -42 -25 -152 -25 -136 0 -129 7 -102 -106 22
-98 24 -100 95 -108 53 -6 73 -3 140 20 l79 27 0 86 c0 87 -7 131 -19 131 -4
0 -22 -11 -41 -25z"/>
<path d="M5866 6364 c-9 -8 -16 -30 -16 -48 0 -31 3 -34 45 -46 36 -10 51 -10
75 0 28 12 41 30 21 30 -5 0 -13 9 -16 21 -7 20 -60 59 -82 59 -6 0 -19 -7
-27 -16z"/>
<path d="M4994 5508 c-61 -41 -139 -153 -155 -223 -20 -87 24 -180 103 -221
26 -14 34 -14 77 1 26 8 62 30 79 48 31 32 32 34 23 92 -25 159 -31 207 -31
250 0 51 -14 85 -34 85 -8 0 -36 -15 -62 -32z"/>
<path d="M3771 5493 c-64 -77 -119 -233 -106 -302 14 -72 59 -119 124 -128 35
-5 40 -2 71 37 18 23 43 46 56 50 28 11 59 69 69 127 9 54 -16 152 -53 207
-26 38 -31 41 -79 44 -48 3 -52 1 -82 -35z"/>
<path d="M4430 5541 c-98 -31 -170 -100 -196 -188 -15 -50 -15 -69 -6 -136 14
-97 40 -143 89 -156 66 -18 121 30 169 150 23 57 26 73 20 139 -17 203 -19
208 -76 191z"/>
</g>
</svg>
